<?xml version="1.0" encoding="UTF-8" standalone="no"?>
<!-- Created with Inkscape (http://www.inkscape.org/) -->
<svg
   xmlns:dc="http://purl.org/dc/elements/1.1/"
   xmlns:cc="http://web.resource.org/cc/"
   xmlns:rdf="http://www.w3.org/1999/02/22-rdf-syntax-ns#"
   xmlns:svg="http://www.w3.org/2000/svg"
   xmlns="http://www.w3.org/2000/svg"
   xmlns:sodipodi="http://sodipodi.sourceforge.net/DTD/sodipodi-0.dtd"
   xmlns:inkscape="http://www.inkscape.org/namespaces/inkscape"
   version="1.0"
   width="600"
   height="600"
   id="svg2"
   sodipodi:version="0.32"
   inkscape:version="0.45.1"
   sodipodi:docname="PA-63.svg"
   inkscape:output_extension="org.inkscape.output.svg.inkscape"
   sodipodi:docbase="C:\Documents and Settings\HP_Administrator\My Documents\My Pictures\US Roads\PA">
  <metadata
     id="metadata2261">
    <rdf:RDF>
      <cc:Work
         rdf:about="">
        <dc:format>image/svg+xml</dc:format>
        <dc:type
           rdf:resource="http://purl.org/dc/dcmitype/StillImage" />
      </cc:Work>
    </rdf:RDF>
  </metadata>
  <sodipodi:namedview
     inkscape:window-height="974"
     inkscape:window-width="1280"
     inkscape:pageshadow="2"
     inkscape:pageopacity="0.0"
     guidetolerance="10.0"
     gridtolerance="10.0"
     objecttolerance="10.0"
     borderopacity="1.0"
     bordercolor="#666666"
     pagecolor="#ffffff"
     id="base"
     inkscape:zoom="0.62833333"
     inkscape:cx="291.45136"
     inkscape:cy="321.47009"
     inkscape:window-x="-8"
     inkscape:window-y="-8"
     inkscape:current-layer="svg2" />
  <defs
     id="defs4" />
  <g
     id="layer1">
    <g
       id="g1876">
      <path
         d="M 37.50003,0 L 562.50045,0 C 583.27547,0 600.00048,16.725013 600.00048,37.50003 L 600.00048,562.50045 C 600.00048,583.27547 583.27547,600.00048 562.50045,600.00048 L 37.50003,600.00048 C 16.725013,600.00048 0,583.27547 0,562.50045 L 0,37.50003 C 0,16.725013 16.725013,0 37.50003,0 z "
         style="fill:black;fill-opacity:1"
         id="rect1884" />
      <path
         d="M 130.71191,25.00002 L 147.5088,125.26052 L 18.750015,125.26052 L 90.824725,575.00046 L 511.10285,575.00046 L 583.17755,125.26052 L 454.41878,125.26052 L 471.21565,25.00002 L 130.71191,25.00002 z "
         style="fill:white;fill-opacity:1;fill-rule:evenodd;stroke:none;stroke-width:1px;stroke-linecap:butt;stroke-linejoin:miter;stroke-opacity:1"
         id="path8224" />
    </g>
  </g>
  <path
     style="font-size:450px;font-style:normal;font-weight:normal;text-align:center;text-anchor:middle;fill:#000000;fill-opacity:1;stroke:none;stroke-width:1px;stroke-linecap:butt;stroke-linejoin:miter;stroke-opacity:1;font-family:Roadgeek 2005 Series D"
     d="M 276.00851,365.7995 C 276.0083,377.83936 273.55804,389.10797 268.65775,399.60535 C 263.75703,410.10282 257.03645,419.20315 248.496,426.90637 C 239.95517,434.60963 229.80595,440.70002 218.04831,445.17755 C 206.29035,449.65509 193.69087,451.89385 180.24985,451.89386 C 166.80858,451.89385 154.20696,449.58459 142.44498,444.96606 C 130.68282,440.34754 120.5336,433.97731 111.99728,425.85535 C 103.46086,417.73343 96.742422,408.21226 91.841949,397.29181 C 86.941407,386.37146 84.491153,374.61366 84.49118,362.01837 C 84.491153,342.41643 87.080261,322.95539 92.258514,303.63519 C 97.436696,284.31529 104.78532,265.83478 114.30441,248.1936 C 123.82339,230.55283 135.23298,214.24273 148.53323,199.26324 C 161.8333,184.28426 176.60532,171.33444 192.84933,160.41376 L 215.52328,198.21222 C 206.84149,204.93731 199.21089,211.44854 192.63144,217.74591 C 186.05172,224.04374 180.03183,230.55283 174.57175,237.27319 C 169.11143,243.99398 164.14256,251.06489 159.66513,258.48596 C 155.18749,265.90741 150.84668,274.09557 146.64267,283.05048 C 154.76879,281.65782 161.00017,280.82042 165.33682,280.53827 C 169.67326,280.25645 174.64426,280.11546 180.24985,280.1153 C 193.12691,280.11546 205.37604,282.35637 216.99728,286.83801 C 228.61821,291.31998 238.83792,297.41037 247.65646,305.10919 C 256.47462,312.8083 263.40455,321.90863 268.44626,332.41022 C 273.48755,342.91203 276.0083,354.04178 276.00851,365.7995 L 276.00851,365.7995 z M 231.48093,364.95355 C 231.48075,359.6387 230.15202,354.46048 227.49472,349.41888 C 224.83708,344.37748 221.19908,340.03667 216.58072,336.39642 C 211.96203,332.7564 206.50183,329.81695 200.2001,327.57806 C 193.89809,325.33942 187.24801,324.22003 180.24985,324.21991 C 173.25144,324.22003 166.74235,325.33942 160.72256,327.57806 C 154.70257,329.81695 149.38122,332.7564 144.75851,336.39642 C 140.13563,340.03667 136.4955,344.37748 133.8381,349.41888 C 131.18056,354.46048 129.85183,359.6387 129.8519,364.95355 C 129.85183,370.5591 131.18056,375.88044 133.8381,380.9176 C 136.4955,385.95489 140.13563,390.36407 144.75851,394.14514 C 149.38122,397.92632 154.70257,400.93626 160.72256,403.17499 C 166.74235,405.4138 173.25144,406.53318 180.24985,406.53314 C 187.24801,406.53318 193.82759,405.4138 199.98862,403.17499 C 206.14936,400.93626 211.53906,397.92632 216.15775,394.14514 C 220.77611,390.36407 224.4846,385.95489 227.28323,380.9176 C 230.08152,375.88044 231.48075,370.5591 231.48093,364.95355 L 231.48093,364.95355 z M 517.0394,354.03314 C 517.03918,368.31179 514.65943,381.47095 509.90012,393.51068 C 505.14039,405.55052 498.49031,415.84073 489.94986,424.38135 C 481.40903,432.92201 471.18932,439.64259 459.29068,444.54309 C 447.39173,449.4436 434.30306,451.89385 420.02463,451.89386 C 408.54015,451.89385 397.8291,450.07379 387.89145,446.43365 C 377.95363,442.79352 368.8533,437.75416 360.59042,431.31555 C 352.32744,424.87698 345.25652,417.03702 339.37766,407.79565 C 333.49872,398.55437 329.1579,388.1958 326.35519,376.71991 L 370.03683,364.12042 C 373.40346,377.83509 379.56648,388.33252 388.52591,395.61273 C 397.48517,402.89305 408.68541,406.53318 422.12668,406.53314 C 429.68026,406.53318 436.53756,405.27281 442.69858,402.75201 C 448.85932,400.23131 454.11017,396.80266 458.45114,392.46606 C 462.7918,388.12958 466.22259,382.95136 468.7435,376.9314 C 471.26408,370.91157 472.52446,364.2615 472.52463,356.98114 C 472.52446,349.70096 471.12309,342.8394 468.32053,336.39642 C 465.51763,329.95367 461.59979,324.91217 456.56699,321.27191 C 454.88349,320.15265 453.41162,319.24262 452.1514,318.54181 C 450.89087,317.84125 449.35065,317.35206 447.53073,317.07422 C 445.71052,316.79664 443.33076,316.51679 440.39145,316.23468 C 437.45186,315.95283 433.3204,315.67512 427.99704,315.40155 L 422.95981,315.40155 L 422.95981,270.04083 L 422.95981,271.29694 L 424.21591,271.29694 L 425.06186,271.29694 L 433.88022,271.29694 C 442.8437,271.29711 449.70527,268.91735 454.46494,264.15765 C 459.2243,259.39832 461.60406,252.53675 461.60422,243.57294 C 461.60406,232.65274 457.75458,223.6229 450.05576,216.4834 C 442.35664,209.34435 432.76498,205.77472 421.28073,205.77448 C 402.52453,205.77472 388.3827,215.01604 378.85519,233.49847 L 337.2756,217.95099 C 344.55584,200.03253 355.54673,185.96333 370.24832,175.74335 C 384.94978,165.5239 401.54186,160.41404 420.02463,160.41376 C 431.78231,160.41404 442.91206,162.65495 453.41391,167.13647 C 463.91546,171.61856 473.08629,177.77944 480.92642,185.61914 C 488.7662,193.45936 494.92495,202.62805 499.40268,213.12524 C 503.88002,223.6229 506.11879,234.75479 506.11899,246.52094 C 506.11879,254.92079 504.9994,262.4809 502.76083,269.20129 C 500.52187,275.92205 496.32204,283.75987 490.16135,292.71478 C 495.48464,297.47445 499.82546,302.02462 503.18381,306.3653 C 506.54176,310.70625 509.27186,315.25642 511.37411,320.01581 C 513.47596,324.77545 514.94568,329.88531 515.78329,335.3454 C 516.62048,340.80571 517.03918,347.03495 517.0394,354.03314 L 517.0394,354.03314 z "
     id="text2263" />
</svg>
