<?xml version="1.0" encoding="utf-8"?>
<!-- Generator: Adobe Illustrator 12.0.1, SVG Export Plug-In  -->
<!DOCTYPE svg PUBLIC "-//W3C//DTD SVG 1.1//EN" "http://www.w3.org/Graphics/SVG/1.1/DTD/svg11.dtd" [
	<!ENTITY ns_flows "http://ns.adobe.com/Flows/1.0/">
	<!ENTITY ns_svg "http://www.w3.org/2000/svg">
	<!ENTITY ns_xlink "http://www.w3.org/1999/xlink">
]>
<svg  version="1.1" xmlns="&ns_svg;" xmlns:xlink="&ns_xlink;" xmlns:a="http://ns.adobe.com/AdobeSVGViewerExtensions/3.0/"
	 width="1012" height="220" viewBox="0 -0.4 1012 220" enable-background="new 0 -0.4 1012 220" xml:space="preserve">
<defs>
</defs>
<path d="M1011.404,81.251C919.601,54.171,827.773,27.086,735.969,0H275.63C183.826,27.086,91.999,54.171,0.195,81.251
	c0.696,46.113-0.69,92.236,0.007,138.349c156.451,0,854.743,0,1011.195,0C1012.096,173.487,1010.709,127.364,1011.404,81.251z"/>
<path fill="#006F53" d="M1009.605,81.719C918.128,55.083,826.628,28.442,735.149,1.8h-458.7
	C184.971,28.442,93.471,55.083,1.995,81.719c0.693,45.357-0.688,90.725,0.007,136.081c155.895,0,851.701,0,1007.596,0
	C1010.294,172.443,1008.912,127.076,1009.605,81.719z"/>
<path fill="#FFFFFF" d="M390.944,42.752h-15.748l3.109,10.382c0.05,0.351,0.05,0.602,0.05,0.753c0,2.407-1.905,3.26-3.31,3.26
	c-0.752,0-1.204-0.201-1.605-0.401l-32.5-21.867l32.5-21.767c0.201-0.15,0.301-0.2,0.452-0.25c0.501-0.151,0.903-0.251,1.254-0.251
	c1.003,0,1.354,0.1,2.157,0.702c0.853,0.602,1.053,1.956,1.053,2.507v0.552c0,0.05,0,0.15-0.05,0.201l-3.109,10.432h15.748V42.752z"
	/>
<path fill="#FFFFFF" d="M396.98,53.78c0.297-5.465,0.713-7.425,1.96-10.87c1.663-4.217,3.742-7.425,6.415-9.92
	c0.951-0.832,1.841-1.544,5.049-3.801c2.613-1.782,3.326-2.792,3.326-4.752c0-3.03-2.495-5.583-5.583-5.583
	c-3.089,0-5.583,2.554-5.583,5.583h-5.584c0.119-6.237,4.871-11.167,11.167-11.167c6.118,0,11.048,5.049,11.048,11.167
	c0,3.208-1.129,5.761-3.386,7.841c-0.416,0.296-0.832,0.535-1.248,0.95l-1.366,1.009l-1.425,0.951l-1.545,1.128
	c-2.495,1.841-5.167,5.465-6.236,8.791c-0.476,1.01-0.595,1.663-0.892,3.089h16.098v5.583H396.98z"/>
<path fill="#FFFFFF" d="M433.749,54.493c-3.505,0-6.891-1.247-9.801-3.505l3.742-4.039c1.96,1.366,3.504,1.96,5.465,1.96
	c4.336,0,7.425-3.92,7.425-9.385c0-4.336-2.139-6.95-5.465-6.95c-1.842,0-3.326,0.654-4.752,1.96l-4.455-0.713V13.982h18.711v5.583
	h-13.424l-0.416,8.375c1.96-0.713,2.97-0.832,4.455-0.832c6.475,0,10.929,5.168,10.929,12.712
	C446.163,48.197,440.817,54.493,433.749,54.493z"/>
<path fill="#FFFFFF" d="M473.249,47.662c-1.96,4.692-4.871,6.831-9.326,6.831c-4.752,0-7.543-2.139-9.504-6.831
	c-1.663-3.92-2.257-7.722-2.257-13.84c0-6,0.594-10.039,2.257-13.84c2.079-4.752,4.871-6.712,9.504-6.712
	c4.574,0,7.366,1.96,9.326,6.831c1.664,3.921,2.257,7.722,2.257,13.721C475.506,39.94,474.913,43.86,473.249,47.662z
	 M468.794,23.902c-1.01-3.505-2.495-5.049-4.871-5.049c-2.554,0-4.099,1.544-5.049,4.93c-0.95,3.03-1.248,5.702-1.248,10.158
	c0,4.336,0.416,6.831,1.248,10.039c0.95,3.386,2.495,4.93,5.049,4.93c2.376,0,3.861-1.544,4.871-4.93
	c0.95-3.208,1.247-5.584,1.247-10.158C470.042,29.367,469.626,26.813,468.794,23.902z"/>
<path fill="#FFD520" d="M512.571,53.78l-12.295-26.671V53.78h-5.702V13.982h5.702l10.929,23.879V13.982h5.702V53.78H512.571z"/>
<path fill="#FFFFFF" d="M534.727,53.78c0.298-5.465,0.713-7.425,1.96-10.87c1.664-4.217,3.742-7.425,6.416-9.92
	c0.95-0.832,1.841-1.544,5.049-3.801c2.613-1.782,3.326-2.792,3.326-4.752c0-3.03-2.495-5.583-5.584-5.583
	c-3.088,0-5.583,2.554-5.583,5.583h-5.584c0.119-6.237,4.871-11.167,11.167-11.167c6.119,0,11.049,5.049,11.049,11.167
	c0,3.208-1.129,5.761-3.386,7.841c-0.416,0.296-0.832,0.535-1.247,0.95l-1.367,1.009l-1.425,0.951l-1.545,1.128
	c-2.495,1.841-5.167,5.465-6.236,8.791c-0.476,1.01-0.595,1.663-0.892,3.089h16.098v5.583H534.727z"/>
<path fill="#FFFFFF" d="M611.114,47.662c-1.96,4.692-4.871,6.831-9.325,6.831c-4.752,0-7.544-2.139-9.505-6.831
	c-1.662-3.92-2.257-7.722-2.257-13.84c0-6,0.595-10.039,2.257-13.84c2.08-4.752,4.871-6.712,9.505-6.712
	c4.573,0,7.365,1.96,9.325,6.831c1.664,3.921,2.258,7.722,2.258,13.721C613.372,39.94,612.778,43.86,611.114,47.662z
	 M606.659,23.902c-1.01-3.505-2.494-5.049-4.87-5.049c-2.555,0-4.099,1.544-5.05,4.93c-0.949,3.03-1.247,5.702-1.247,10.158
	c0,4.336,0.416,6.831,1.247,10.039c0.951,3.386,2.495,4.93,5.05,4.93c2.376,0,3.86-1.544,4.87-4.93
	c0.951-3.208,1.248-5.584,1.248-10.158C607.907,29.367,607.491,26.813,606.659,23.902z"/>
<path fill="#FFFFFF" d="M670.659,34.878L638.16,56.745c-0.452,0.2-0.853,0.401-1.706,0.401c-0.551,0-0.952-0.05-1.203-0.15
	c-0.552-0.151-2.106-1.505-2.106-2.809c0-0.151,0.05-0.151,0.05-0.301v-0.502c0-0.05,0-0.151,0.051-0.251l3.159-10.382h-15.748
	V27.004h15.748l-3.159-10.432c-0.051-0.351-0.051-0.602-0.051-0.752c0-1.104,0.401-1.956,1.154-2.507
	c0.803-0.602,1.304-0.702,2.105-0.702c0.502,0,0.903,0.05,1.204,0.2c0.15,0.051,0.251,0.151,0.502,0.301L670.659,34.878z"/>
<path fill="#FFFFFF" d="M85.334,198.544v-49.086H55.526v49.086H39.974V90.003h15.552v44.227h29.808V90.003h15.552v108.541H85.334z"
	/>
<path fill="#FFFFFF" d="M181.237,185.261c-5.346,8.748-15.552,15.228-25.92,15.228c-10.692,0-21.222-6.156-26.568-15.228
	c-3.078-5.832-4.212-10.368-4.212-19.116V90.003h15.552v78.085c0,10.206,6.156,17.173,15.228,17.173
	c8.424,0,14.58-6.967,14.58-17.173V90.003h15.552v76.142C185.449,174.893,184.315,179.429,181.237,185.261z"/>
<path fill="#FFFFFF" d="M254.459,193.522c-3.888,3.564-9.234,5.021-15.228,5.021h-30.133V90.003h27.703
	c9.234,0,13.77,1.134,17.658,4.212c6.48,4.537,11.016,12.96,12.96,23.977c1.458,7.938,2.592,17.496,2.592,25.921
	C270.011,169.223,264.989,185.261,254.459,193.522z M251.705,116.247c-2.592-7.614-7.128-11.016-14.094-11.016h-12.96v78.085h12.96
	c9.234,0,14.094-7.29,15.714-15.553c0.647-6.966,1.458-14.58,1.458-22.842C254.783,132.609,253.649,120.783,251.705,116.247z"/>
<path fill="#FFFFFF" d="M316.504,200.488c-19.116,0-30.456-16.038-30.456-33.858h15.228c0,9.072,4.536,18.631,15.228,18.631
	c8.424,0,15.229-7.615,15.229-16.363c0-6.155-2.268-10.691-8.748-15.714c-2.268-2.268,3.888,1.944-18.306-12.96
	c-8.748-5.994-13.284-14.418-13.284-23.977c0-15.552,12.15-28.188,27.702-28.188c15.39,0,27.054,11.826,27.541,28.188h-14.904
	c-0.324-7.614-5.67-12.474-12.636-12.474c-7.128,0-12.798,5.346-12.798,12.474c0,5.346,2.268,8.425,10.206,12.961
	c20.898,12.149,30.133,23.976,30.133,39.689C346.637,186.394,333.19,200.488,316.504,200.488z"/>
<path fill="#FFFFFF" d="M420.508,181.858c-5.346,12.798-13.284,18.63-25.435,18.63c-12.96,0-20.574-5.832-25.92-18.63
	c-4.536-10.692-6.156-21.061-6.156-37.746c0-16.362,1.62-27.379,6.156-37.747c5.67-12.96,13.284-18.306,25.92-18.306
	c12.474,0,20.088,5.346,25.435,18.63c4.536,10.692,6.156,21.061,6.156,37.423C426.664,160.798,425.044,171.49,420.508,181.858z
	 M408.357,117.058c-2.754-9.558-6.804-13.771-13.284-13.771c-6.966,0-11.178,4.212-13.77,13.446
	c-2.592,8.262-3.402,15.553-3.402,27.702c0,11.827,1.134,18.63,3.402,27.379c2.592,9.233,6.804,13.446,13.77,13.446
	c6.48,0,10.53-4.213,13.284-13.446c2.592-8.749,3.402-15.229,3.402-27.702C411.76,131.962,410.625,124.995,408.357,117.058z"/>
<path fill="#FFFFFF" d="M497.458,198.544l-33.535-72.738v72.738h-15.552V90.003h15.552l29.808,65.125V90.003h15.552v108.541H497.458
	z"/>
<path fill="#FFFFFF" d="M588.337,200.488c-19.117,0-30.457-16.038-30.457-33.858h15.229c0,9.072,4.536,18.631,15.229,18.631
	c8.424,0,15.229-7.615,15.229-16.363c0-6.155-2.27-10.691-8.748-15.714c-2.27-2.268,3.887,1.944-18.307-12.96
	c-8.748-5.994-13.285-14.418-13.285-23.977c0-15.552,12.15-28.188,27.703-28.188c15.391,0,27.055,11.826,27.54,28.188h-14.903
	c-0.324-7.614-5.67-12.474-12.637-12.474c-7.129,0-12.799,5.346-12.799,12.474c0,5.346,2.269,8.425,10.207,12.961
	c20.898,12.149,30.132,23.976,30.132,39.689C618.469,186.394,605.022,200.488,588.337,200.488z"/>
<path fill="#FFFFFF" d="M663.827,104.422v94.122h-15.713v-94.122H628.35V90.003h55.243v14.419H663.827z"/>
<path fill="#FFFFFF" d="M743.37,198.544l-14.418-51.03h-14.904v51.03h-15.553V90.003h32.4c17.01,0,28.512,11.502,28.512,28.998
	c0,12.961-5.346,22.356-15.552,26.245l15.552,53.298H743.37z M730.085,105.231h-16.037v27.378h16.037
	c9.072,0,14.095-4.859,14.095-13.608C744.18,110.577,738.51,105.231,730.085,105.231z"/>
<path fill="#FFFFFF" d="M777.713,198.544V90.003h51.03v15.229h-35.479v27.378h22.52v14.904h-22.52v35.803h39.691v15.228H777.713z"/>
<path fill="#FFFFFF" d="M851.261,198.544V90.003h51.03v15.229h-35.479v27.378h22.519v14.904h-22.519v35.803h39.69v15.228H851.261z"
	/>
<path fill="#FFFFFF" d="M951.862,104.422v94.122h-15.715v-94.122h-19.764V90.003h55.242v14.419H951.862z"/>
<path fill="#FFFFFF" d="M583.085,47.664c-1.96,4.692-4.87,6.831-9.325,6.831c-4.752,0-7.544-2.139-9.504-6.831
	c-1.663-3.92-2.258-7.722-2.258-13.84c0-6,0.595-10.039,2.258-13.84c2.079-4.752,4.87-6.712,9.504-6.712
	c4.573,0,7.365,1.96,9.325,6.831c1.664,3.921,2.258,7.722,2.258,13.721C585.343,39.942,584.749,43.862,583.085,47.664z
	 M578.631,23.904c-1.011-3.505-2.495-5.049-4.871-5.049c-2.554,0-4.099,1.544-5.049,4.93c-0.95,3.03-1.248,5.702-1.248,10.158
	c0,4.336,0.416,6.831,1.248,10.039c0.95,3.386,2.495,4.93,5.049,4.93c2.376,0,3.86-1.544,4.871-4.93
	c0.95-3.208,1.247-5.584,1.247-10.158C579.878,29.369,579.462,26.814,578.631,23.904z"/>
</svg>
