<?xml version="1.0" encoding="utf-8"?>
<!-- Generator: Adobe Illustrator 12.0.0, SVG Export Plug-In . SVG Version: 6.00 Build 51448)  -->
<!DOCTYPE svg PUBLIC "-//W3C//DTD SVG 1.1//EN" "http://www.w3.org/Graphics/SVG/1.1/DTD/svg11.dtd" [
	<!ENTITY ns_svg "http://www.w3.org/2000/svg">
	<!ENTITY ns_xlink "http://www.w3.org/1999/xlink">
]>
<svg  version="1.1" id="Layer_1" xmlns="&ns_svg;" xmlns:xlink="&ns_xlink;" width="600" height="600" viewBox="0 0 600 600"
	 overflow="visible" enable-background="new 0 0 600 600" xml:space="preserve">
<g>
	<path d="M0,50C0,22.3857422,22.3852539,0,50,0h500c27.6142578,0,50,22.3857422,50,50v500c0,27.6152344-22.3857422,50-50,50H50
		c-27.6147461,0-50-22.3847656-50-50V50L0,50z"/>
	<path d="M300,300"/>
</g>
<g>
	<path fill-rule="evenodd" clip-rule="evenodd" fill="#FFFFFF" d="M300,10.0029297
		c23.5644531,20.0751953,54.1171875,32.1914063,87.5,32.1914063S451.4355469,30.0751953,475,10l115,115
		c-21.1621094,30.0810547-33.5878906,66.7539063-33.5878906,106.3261719c0,28.4638672,6.4267578,55.4248047,17.9101563,79.5126953
		C584.2441406,331.6640625,590,355.3945313,590,380c0,88.3671875-71.6328125,160-160,160h-25.1132813
		C362.5419922,540,324.7509766,559.4951172,300,590c-24.7514648-30.5048828-62.5419922-50-104.8867188-50h-25.1137695
		c-88.3666992,0-160-71.6328125-160-160c0-24.6054688,5.7563477-48.3359375,15.6787109-69.1611328
		c11.4824219-24.0878906,17.9101563-51.0488281,17.9101563-79.5126953C43.5883789,191.7539063,31.1616211,155.0810547,10,125L125,10
		c23.5644531,20.0751953,54.1171875,32.1943359,87.5,32.1943359S276.4355469,30.078125,300,10.0029297z"/>
	
		<path fill-rule="evenodd" clip-rule="evenodd" fill="none" stroke="#000000" stroke-linecap="round" stroke-linejoin="round" stroke-miterlimit="3.863693" d="
		M300,10.0029297c23.5644531,20.0751953,54.1171875,32.1914063,87.5,32.1914063S451.4355469,30.0751953,475,10l115,115
		c-21.1621094,30.0810547-33.5878906,66.7539063-33.5878906,106.3261719c0,28.4638672,6.4267578,55.4248047,17.9101563,79.5126953
		C584.2441406,331.6640625,590,355.3945313,590,380c0,88.3671875-71.6328125,160-160,160h-25.1132813
		C362.5419922,540,324.7509766,559.4951172,300,590c-24.7514648-30.5048828-62.5419922-50-104.8867188-50h-25.1137695
		c-88.3666992,0-160-71.6328125-160-160c0-24.6054688,5.7563477-48.3359375,15.6787109-69.1611328
		c11.4824219-24.0878906,17.9101563-51.0488281,17.9101563-79.5126953C43.5883789,191.7539063,31.1616211,155.0810547,10,125L125,10
		c23.5644531,20.0751953,54.1171875,32.1943359,87.5,32.1943359S276.4355469,30.078125,300,10.0029297z"/>
</g>
<path fill-rule="evenodd" clip-rule="evenodd" d="M336.5800781,434.8056641h-46.753418V199.7402344h-26.4067383v-36.3632813
	h3.0302734c13.5644531,0,24.675293-6.2050781,33.3334961-18.6142578h36.7963867V434.8056641z"/>
</svg>
