<?xml version="1.0" encoding="utf-8"?>
<!-- Generator: Adobe Illustrator 12.0.0, SVG Export Plug-In . SVG Version: 6.00 Build 51448)  -->
<!DOCTYPE svg PUBLIC "-//W3C//DTD SVG 1.1//EN" "http://www.w3.org/Graphics/SVG/1.1/DTD/svg11.dtd" [
	<!ENTITY ns_svg "http://www.w3.org/2000/svg">
	<!ENTITY ns_xlink "http://www.w3.org/1999/xlink">
]>
<svg  version="1.1" id="Layer_1" xmlns="&ns_svg;" xmlns:xlink="&ns_xlink;" width="750" height="600" viewBox="0 0 750 600"
	 overflow="visible" enable-background="new 0 0 750 600" xml:space="preserve">
<g>
	<g>
		<path d="M0,50C0,22.3857422,22.3852539,0,50,0h650c27.6142578,0,50,22.3857422,50,50v500c0,27.6152344-22.3857422,50-50,50H50
			c-27.6147461,0-50-22.3847656-50-50V50L0,50z"/>
		<path d="M375,300"/>
	</g>
	<path fill-rule="evenodd" clip-rule="evenodd" fill="#FFFFFF" d="M375,10.0019531
		c-36.3276367,22.4638672-79.1494141,35.4287109-125,35.4287109S161.3271484,32.4638672,125,10L10,125
		c21.1630859,30.0810547,33.5878906,66.7524414,33.5878906,106.3271484c0,28.5605469-6.4716797,55.6088867-18.0283203,79.7587891
		C15.5849609,331.9560547,10,355.3261719,10,380c0,88.3671875,71.6328125,160,160,160h100.1152344
		C312.4584961,540,350.2485352,559.4941406,375,589.9980469C399.7509766,559.4941406,437.5410156,540,479.8847656,540H580
		c88.3671875,0,160-71.6328125,160-160c0-24.6738281-5.5849609-48.0439453-15.5605469-68.9140625
		c-11.5566406-24.1499023-18.0273438-51.1982422-18.0273438-79.7587891C706.4121094,191.7524414,718.8369141,155.0810547,740,125
		L625,10c-36.3271484,22.4638672-79.1503906,35.4306641-125,35.4306641
		C454.1494141,45.4306641,411.3271484,32.4658203,375,10.0019531z"/>
</g>
<g>
	<path fill-rule="evenodd" clip-rule="evenodd" d="M245.8237305,434.8056641H83.9189453
		c1.7314453-32.3232422,6.4931641-58.7304688,14.2856445-79.2207031
		c11.2553711-30.0146484,26.8398438-54.1132813,46.753418-72.2949219
		c6.3491211-5.7714844,18.6142578-15.0068359,36.7963867-27.7050781
		c9.5239258-6.6381836,15.9448242-12.265625,19.2641602-16.8837891c3.3188477-4.6171875,4.9785156-10.3896484,4.9785156-17.3154297
		c0-11.2558594-3.96875-20.8515625-11.9052734-28.7880859s-17.5322266-11.9047852-28.7875977-11.9047852
		s-20.8515625,3.9682617-28.7880859,11.9047852c-7.9360352,7.9365234-11.9047852,17.5322266-11.9047852,28.7880859H83.9189453
		c0.5771484-23.0883789,8.5859375-42.4248047,24.0258789-58.0087891C123.3852539,147.7924805,142.5048828,140,165.3041992,140
		c22.222168,0,41.1977539,7.9365234,56.9262695,23.8095703s23.5932617,35.0654297,23.5932617,57.5761719
		s-8.2250977,41.4140625-24.675293,56.7099609c-4.0405273,2.8857422-7.0712891,5.3388672-9.0908203,7.359375l-20.3466797,13.8525391
		l-11.2553711,8.2255859c-20.7788086,15.0068359-36.074707,36.3632813-45.887207,64.0683594
		c-2.3085938,7.2148438-4.3291016,14.71875-6.0605469,22.5117188h117.315918V434.8056641z"/>
	<path fill-rule="evenodd" clip-rule="evenodd" d="M460.1035156,289.3505859
		c0,41.5585938-5.4833984,75.1806641-16.4501953,100.8662109C429.5117188,423.40625,406.7128906,440,375.2548828,440
		c-32.034668,0-54.9785156-16.59375-68.8310547-49.7832031c-10.9667969-25.9746094-16.4501953-59.5957031-16.4501953-100.8662109
		c0-42.7128906,5.4833984-76.3349609,16.4501953-100.8657227C320.8535156,156.1621094,343.7978516,140,375.2548828,140
		c17.0273438,0,30.8798828,3.8242188,41.5585938,11.4716797c10.6787109,7.6484375,19.625,20.4189453,26.8398438,38.3120117
		C454.6201172,216.0463867,460.1035156,249.2353516,460.1035156,289.3505859z M420.2763672,289.3505859
		c0-26.5507813-3.0302734-50.6489258-9.0908203-72.2939453c-6.9257813-24.2426758-18.9033203-36.3637695-35.9306641-36.3637695
		s-29.1484375,11.8325195-36.3632813,35.4975586c-6.0605469,19.9130859-9.0913086,44.5888672-9.0913086,74.0263672
		c0,26.8398438,3.0307617,51.3710938,9.0913086,73.5927734c6.6376953,23.6650391,18.7587891,35.4980469,36.3632813,35.4980469
		c17.0273438,0,29.4375-13.5644531,37.2294922-40.6923828C417.6796875,340.1445313,420.2763672,317.0566406,420.2763672,289.3505859
		z"/>
	<path fill-rule="evenodd" clip-rule="evenodd" d="M666.0810547,434.8056641H504.1757813
		c1.7324219-32.3232422,6.4941406-58.7304688,14.2861328-79.2207031
		c11.2548828-30.0146484,26.8398438-54.1132813,46.7529297-72.2949219
		c6.3496094-5.7714844,18.6152344-15.0068359,36.796875-27.7050781c9.5234375-6.6381836,15.9453125-12.265625,19.2636719-16.8837891
		c3.3193359-4.6171875,4.9785156-10.3896484,4.9785156-17.3154297c0-11.2558594-3.9677734-20.8515625-11.9042969-28.7880859
		s-17.5322266-11.9047852-28.7880859-11.9047852c-11.2548828,0-20.8515625,3.9682617-28.7880859,11.9047852
		s-11.9042969,17.5322266-11.9042969,28.7880859h-40.6933594c0.578125-23.0883789,8.5859375-42.4248047,24.0263672-58.0087891
		C543.6425781,147.7924805,562.7617188,140,585.5615234,140c22.2216797,0,41.1982422,7.9365234,56.9267578,23.8095703
		s23.5927734,35.0654297,23.5927734,57.5761719s-8.2246094,41.4140625-24.6757813,56.7099609
		c-4.0400391,2.8857422-7.0703125,5.3388672-9.0908203,7.359375L611.96875,299.3076172l-11.2558594,8.2255859
		c-20.7792969,15.0068359-36.0751953,36.3632813-45.8867188,64.0683594
		c-2.3095703,7.2148438-4.3300781,14.71875-6.0615234,22.5117188h117.3164063V434.8056641z"/>
</g>
</svg>
