<?xml version="1.0" encoding="UTF-8" standalone="no"?>
<!-- Created with Inkscape (http://www.inkscape.org/) -->
<svg
   xmlns:dc="http://purl.org/dc/elements/1.1/"
   xmlns:cc="http://web.resource.org/cc/"
   xmlns:rdf="http://www.w3.org/1999/02/22-rdf-syntax-ns#"
   xmlns:svg="http://www.w3.org/2000/svg"
   xmlns="http://www.w3.org/2000/svg"
   xmlns:sodipodi="http://sodipodi.sourceforge.net/DTD/sodipodi-0.dtd"
   xmlns:inkscape="http://www.inkscape.org/namespaces/inkscape"
   version="1.0"
   width="751"
   height="601"
   viewBox="0 0 750 599.99902"
   id="Layer_1"
   xml:space="preserve"
   sodipodi:version="0.32"
   inkscape:version="0.45"
   sodipodi:docname="Interstate Route 3-Digit Template.svg"
   sodipodi:docbase="C:\Documents and Settings\ltljltlj\Desktop\Signs\Interstate Shields"
   inkscape:output_extension="org.inkscape.output.svg.inkscape"
   sodipodi:modified="true"><metadata
   id="metadata36"><rdf:RDF><cc:Work
       rdf:about=""><dc:format>image/svg+xml</dc:format><dc:type
         rdf:resource="http://purl.org/dc/dcmitype/StillImage" /></cc:Work></rdf:RDF></metadata><sodipodi:namedview
   inkscape:window-height="965"
   inkscape:window-width="1041"
   inkscape:pageshadow="2"
   inkscape:pageopacity="0.0"
   guidetolerance="10.0"
   gridtolerance="10.0"
   objecttolerance="10.0"
   borderopacity="1.0"
   bordercolor="#666666"
   pagecolor="#ffffff"
   id="base"
   width="751px"
   height="601px"
   inkscape:zoom="1.2746667"
   inkscape:cx="375"
   inkscape:cy="300"
   inkscape:window-x="-2"
   inkscape:window-y="-4"
   inkscape:current-layer="Layer_1" /><defs
   id="defs62">
	
	
	
	
</defs>
<g
   transform="matrix(0.9986685,0,0,0.9986701,0.4993343,0.3989715)"
   id="g5"
   style="fill:#ffffff;fill-opacity:1;stroke:#000000;stroke-width:0.99999923;stroke-miterlimit:4;stroke-dasharray:none;stroke-opacity:1">
		<path
   id="path7"
   style="fill:#ffffff;fill-opacity:1;stroke:#000000;stroke-width:0.99999923;stroke-miterlimit:4;stroke-dasharray:none;stroke-opacity:1"
   d="M 38.915039,0 C 92.236328,15.525391 148.625,23.849609 206.95801,23.849609 C 265.29053,23.849609 321.6792,15.525391 375,0.0004883 C 428.32031,15.525391 484.70898,23.849609 543.04199,23.849609 C 601.375,23.849609 657.76367,15.525391 711.08398,0 C 736.06445,54.121094 750,114.3877 750,177.90918 C 750,395.71777 586.16016,575.25391 375,599.99902 C 163.83887,575.25391 0,395.71777 0,177.90918 C 0,114.3877 13.935059,54.121094 38.915039,0 z " />
		
			<path
   id="path9"
   style="fill:#ffffff;fill-opacity:1;stroke:#000000;stroke-width:0.99999923;stroke-linecap:round;stroke-linejoin:round;stroke-miterlimit:4;stroke-dasharray:none;stroke-opacity:1"
   d="M 38.915039,0 C 92.236328,15.525391 148.625,23.849609 206.95801,23.849609 C 265.29053,23.849609 321.6792,15.525391 375,0.0004883 C 428.32031,15.525391 484.70898,23.849609 543.04199,23.849609 C 601.375,23.849609 657.76367,15.525391 711.08398,0 C 736.06445,54.121094 750,114.3877 750,177.90918 C 750,395.71777 586.16016,575.25391 375,599.99902 C 163.83887,575.25391 0,395.71777 0,177.90918 C 0,114.3877 13.935059,54.121094 38.915039,0 z " />
	</g><g
   transform="matrix(1.0056032,0,0,1.0101352,-2.1013651,-3.701895)"
   id="g11"
   style="fill:#003f87;fill-opacity:1">
		<path
   id="path13"
   style="fill:#003f87;fill-opacity:1"
   d="M 15,177.90918 C 15,165.12744 15.584961,152.48242 16.729004,139.99902 L 733.27051,139.99902 C 734.41504,152.48242 735,165.12744 735,177.90918 C 735,387.42285 577.85547,560.22852 375,584.89062 C 172.14453,560.22852 15,387.42285 15,177.90918 z " />
	</g><g
   transform="matrix(1.00604,0,0,1.0270827,-2.2645004,-3.1522953)"
   id="g15"
   style="fill:#af1e2d;fill-opacity:1">
		<path
   id="path17"
   style="fill:#af1e2d;fill-opacity:1"
   d="M 47.37793,17.942871 C 98.270019,31.578125 151.76562,38.849121 206.95996,38.849121 C 265.2207,38.849121 321.58936,30.748047 375,15.611328 C 428.41113,30.748047 484.7793,38.849121 543.04004,38.849121 C 598.23438,38.849121 651.73047,31.578613 702.62109,17.942871 C 716.88281,51.567383 726.78516,87.489258 731.61719,124.99902 L 18.381836,124.99902 C 23.214844,87.489258 33.116211,51.567383 47.37793,17.942871 z " />
	</g>



<path
   style="font-size:93.28099823px;font-style:normal;font-variant:normal;font-weight:normal;font-stretch:normal;text-align:center;line-height:125%;writing-mode:lr-tb;text-anchor:middle;fill:#ffffff;fill-opacity:1;font-family:Roadgeek 2005 Series C"
   d="M 183.53777,112.74918 L 183.53777,50.332876 L 192.29397,50.332876 L 192.29397,112.74918 L 183.53777,112.74918 z M 234.32652,112.74918 L 215.04301,70.9213 L 215.04301,112.74918 L 206.09918,112.74918 L 206.09918,50.332876 L 215.04301,50.332876 L 232.18297,87.782657 L 232.18297,50.332876 L 241.1268,50.332876 L 241.1268,112.74918 L 234.32652,112.74918 z M 270.23545,58.625673 L 270.23545,112.74918 L 261.20065,112.74918 L 261.20065,58.625673 L 249.83466,58.625673 L 249.83466,50.332876 L 281.60144,50.332876 L 281.60144,58.625673 L 270.23545,58.625673 z M 290.15862,112.74918 L 290.15862,50.332876 L 319.50324,50.332876 L 319.50324,59.091911 L 299.10244,59.091911 L 299.10244,74.833158 L 312.05195,74.833158 L 312.05195,83.404561 L 299.10244,83.404561 L 299.10244,103.99298 L 321.9254,103.99298 L 321.9254,112.74918 L 290.15862,112.74918 z M 358.17549,112.74918 L 349.88269,83.404561 L 341.31412,83.404561 L 341.31412,112.74918 L 332.3703,112.74918 L 332.3703,50.332876 L 351.0028,50.332876 C 353.42494,50.332939 355.64525,50.736632 357.66375,51.54396 C 359.6822,52.351409 361.42112,53.469623 362.88052,54.898605 C 364.33984,56.327702 365.45758,58.082256 366.23374,60.16227 C 367.00981,62.242391 367.39787,64.524779 367.39791,67.009443 C 367.39787,70.735604 366.65256,73.903089 365.16196,76.511902 C 363.67129,79.120788 361.43533,80.983373 358.4541,82.099661 L 367.39791,112.74918 L 358.17549,112.74918 z M 358.64173,67.009443 C 358.6417,64.587323 357.89637,62.662194 356.40576,61.234051 C 354.9151,59.806011 352.9587,59.091965 350.53656,59.091911 L 341.31412,59.091911 L 341.31412,74.833158 L 350.53656,74.833158 C 353.14444,74.833195 355.14727,74.165584 356.54506,72.830321 C 357.9428,71.495138 358.6417,69.554847 358.64173,67.009443 L 358.64173,67.009443 z M 409.6238,95.700189 C 409.62376,98.247459 409.17363,100.62319 408.27342,102.82739 C 407.37312,105.03161 406.13124,106.94111 404.54777,108.55587 C 402.96423,110.17066 401.13196,111.45945 399.05098,112.42224 C 396.96994,113.38505 394.71835,113.86645 392.29621,113.86645 C 389.56319,113.86645 387.11023,113.33861 384.93731,112.28294 C 382.76436,111.22727 380.93257,109.79918 379.44194,107.99867 C 377.9513,106.19815 376.80229,104.11761 375.9949,101.75704 C 375.18751,99.396471 374.78382,96.943507 374.78382,94.398132 L 383.54002,94.398132 C 383.54001,95.702101 383.71058,96.990416 384.05174,98.263081 C 384.39288,99.535774 384.92071,100.68479 385.63525,101.71013 C 386.34975,102.73548 387.25049,103.5585 388.33743,104.17919 C 389.42436,104.7999 390.74394,105.11026 392.29621,105.11025 C 393.47695,105.11026 394.61079,104.86198 395.69776,104.3654 C 396.78467,103.86886 397.7162,103.18561 398.49235,102.31567 C 399.26844,101.44574 399.88914,100.4365 400.35446,99.287953 C 400.81972,98.139429 401.05236,96.943507 401.05239,95.700189 C 401.05236,93.899691 400.67995,92.301024 399.93513,90.904183 C 399.19025,89.507385 397.8863,88.094456 396.02327,86.66539 C 395.71243,86.35459 395.58828,86.183541 395.65086,86.152242 C 395.71337,86.120997 395.52716,85.950422 395.09222,85.640517 C 394.65723,85.330666 393.74087,84.725125 392.34312,83.823891 C 390.94533,82.922716 388.66293,81.386119 385.49595,79.214098 C 382.95057,77.474265 381.04108,75.439684 379.76746,73.110348 C 378.49382,70.781092 377.85701,68.219623 377.85702,65.425937 C 377.85701,63.189556 378.2607,61.093379 379.0681,59.137398 C 379.87548,57.181525 381.00886,55.458243 382.46824,53.967549 C 383.92759,52.476972 385.62007,51.312324 387.54568,50.473601 C 389.47127,49.635002 391.55134,49.215672 393.7859,49.215608 C 396.0223,49.215672 398.08768,49.619366 399.98204,50.426693 C 401.87634,51.234143 403.52192,52.352357 404.91877,53.781337 C 406.31556,55.210436 407.4333,56.918555 408.272,58.9057 C 409.11062,60.892952 409.56122,63.066363 409.6238,65.425937 L 401.05239,65.425937 C 400.92917,63.2521 400.18433,61.513183 398.81786,60.209179 C 397.45134,58.90528 395.77402,58.253304 393.7859,58.25325 C 391.73707,58.253304 389.99863,58.936552 388.57055,60.302996 C 387.14245,61.669543 386.4284,63.377188 386.42842,65.425937 C 386.4284,66.978216 386.83209,68.282167 387.63951,69.337795 C 388.44687,70.393507 389.99911,71.573317 392.29621,72.87723 C 398.32127,76.355104 402.71547,79.895009 405.47882,83.496956 C 408.24211,87.09896 409.62376,91.166701 409.6238,95.700189 L 409.6238,95.700189 z M 435.62513,58.625673 L 435.62513,112.74918 L 426.59034,112.74918 L 426.59034,58.625673 L 415.22435,58.625673 L 415.22435,50.332876 L 446.99113,50.332876 L 446.99113,58.625673 L 435.62513,58.625673 z M 481.6321,112.74918 L 477.25401,95.700189 L 463.83827,95.700189 L 459.74164,112.74918 L 450.70398,112.74918 L 466.26044,50.332876 L 475.01948,50.332876 L 490.57593,112.74918 L 481.6321,112.74918 z M 470.45374,68.965372 L 466.07565,86.943996 L 475.01948,86.943996 L 470.45374,68.965372 z M 514.77201,58.625673 L 514.77201,112.74918 L 505.73722,112.74918 L 505.73722,58.625673 L 494.37123,58.625673 L 494.37123,50.332876 L 526.13801,50.332876 L 526.13801,58.625673 L 514.77201,58.625673 z M 534.6952,112.74918 L 534.6952,50.332876 L 564.03982,50.332876 L 564.03982,59.091911 L 543.63903,59.091911 L 543.63903,74.833158 L 556.58852,74.833158 L 556.58852,83.404561 L 543.63903,83.404561 L 543.63903,103.99298 L 566.46199,103.99298 L 566.46199,112.74918 L 534.6952,112.74918 z "
   id="text7023" />

<path
   style="font-size:373.12701416px;font-style:normal;font-variant:normal;font-weight:normal;font-stretch:normal;text-align:center;line-height:125%;writing-mode:lr-tb;text-anchor:middle;fill:#ffffff;fill-opacity:1;font-family:Roadgeek 2005 Series C"
   d="M 260.00869,380.07571 L 260.00869,440.43707 L 224.24447,440.43707 L 224.24447,380.07571 L 120.64763,380.07571 L 120.64763,354.72803 L 224.24447,190.76984 L 260.00869,190.76984 L 260.00869,346.52898 L 274.91708,346.52898 L 274.91708,380.07571 L 260.00869,380.07571 z M 224.24447,253.00754 L 164.62227,346.52898 L 224.24447,346.52898 L 224.24447,253.00754 z M 444.86818,225.80626 C 433.69338,238.47461 423.75826,252.8201 415.06278,268.84274 C 406.36705,284.8657 398.54328,302.93733 391.59143,323.05765 C 384.88201,342.18507 380.03573,360.87834 377.05262,379.13754 C 374.06936,397.39685 372.08119,417.83001 371.08814,440.43707 L 336.06309,440.43707 L 336.06309,435.21743 C 336.06305,429.00844 336.43642,421.80444 337.18321,413.60537 C 337.92991,405.40637 338.98559,396.89839 340.35024,388.08143 C 341.71481,379.26458 343.26705,370.32259 345.00698,361.25542 C 346.74681,352.18842 348.73497,343.55346 350.97147,335.35053 C 353.70064,325.4193 356.6175,315.92009 359.72205,306.85288 C 362.82648,297.78592 366.30434,288.90458 370.15565,280.20881 C 374.00682,271.51337 378.29207,262.75522 383.01144,253.93434 C 387.73062,245.11383 393.19856,235.73781 399.41521,225.80626 L 305.50714,225.80626 L 305.50714,190.76984 L 444.86818,190.76984 L 444.86818,225.80626 L 444.86818,225.80626 z M 629.3524,365.16731 C 629.35224,377.09258 627.73744,387.89954 624.50802,397.58824 C 621.27829,407.27702 616.61965,415.65989 610.53212,422.73691 C 604.44429,429.81395 597.05455,435.27807 588.36285,439.12931 C 579.67091,442.98055 569.98407,444.90617 559.30229,444.90617 C 536.44496,444.90617 519.17884,437.01985 507.50388,421.2472 C 495.82884,405.47459 489.99133,383.30155 489.99135,354.72803 C 489.99133,339.58092 491.91694,324.36741 495.76821,309.08742 C 499.61942,293.8077 505.20864,279.02632 512.53589,264.74321 C 519.86304,250.46045 528.86759,236.85982 539.54952,223.94129 C 550.23133,211.02319 562.4029,199.34818 576.06429,188.91624 L 596.19232,217.23195 C 590.97634,221.2047 585.69795,225.92399 580.35712,231.38979 C 575.01607,236.85604 569.98407,242.63289 565.2611,248.72038 C 560.53792,254.80825 556.31332,261.08167 552.58726,267.54065 C 548.86102,273.99999 545.87973,280.20898 543.64336,286.16762 C 546.63027,285.67499 549.42772,285.4286 552.03573,285.42845 C 554.64357,285.4286 557.06575,285.4286 559.30229,285.42845 C 569.98407,285.4286 579.67091,287.35234 588.36285,291.19963 C 597.05455,295.04722 604.44429,300.51136 610.53212,307.59204 C 616.61965,314.67299 621.27829,323.05777 624.50802,332.74639 C 627.73744,342.43524 629.35224,353.2422 629.3524,365.16731 L 629.3524,365.16731 z M 594.32734,365.16731 C 594.32721,351.74872 591.09764,340.81666 584.6386,332.37113 C 578.17931,323.92581 569.73389,319.70309 559.30229,319.70297 C 548.62032,319.70309 540.11236,323.67752 533.77835,331.62628 C 527.44422,339.57524 524.27718,349.51227 524.27723,361.43738 C 524.27718,375.59908 527.44422,387.21344 533.77835,396.28048 C 540.11236,405.3476 548.62032,409.88114 559.30229,409.88111 C 569.73389,409.88114 578.17931,405.72098 584.6386,397.4006 C 591.09764,389.0803 594.32721,378.33589 594.32734,365.16731 L 594.32734,365.16731 z "
   id="text7029" />

</svg>