<?xml version="1.0" encoding="UTF-8" standalone="no"?>
<!-- Created with Inkscape (http://www.inkscape.org/) -->
<svg
   xmlns:dc="http://purl.org/dc/elements/1.1/"
   xmlns:cc="http://web.resource.org/cc/"
   xmlns:rdf="http://www.w3.org/1999/02/22-rdf-syntax-ns#"
   xmlns:svg="http://www.w3.org/2000/svg"
   xmlns="http://www.w3.org/2000/svg"
   xmlns:sodipodi="http://sodipodi.sourceforge.net/DTD/sodipodi-0.dtd"
   xmlns:inkscape="http://www.inkscape.org/namespaces/inkscape"
   version="1.0"
   width="751"
   height="601"
   viewBox="0 0 750 599.99902"
   id="Layer_1"
   xml:space="preserve"
   sodipodi:version="0.32"
   inkscape:version="0.45"
   sodipodi:docname="I-675.svg"
   sodipodi:docbase="C:\Documents and Settings\ltljltlj\Desktop\Signs\Interstate Shields"
   inkscape:output_extension="org.inkscape.output.svg.inkscape"
   sodipodi:modified="true"><metadata
   id="metadata36"><rdf:RDF><cc:Work
       rdf:about=""><dc:format>image/svg+xml</dc:format><dc:type
         rdf:resource="http://purl.org/dc/dcmitype/StillImage" /></cc:Work></rdf:RDF></metadata><sodipodi:namedview
   inkscape:window-height="965"
   inkscape:window-width="1040"
   inkscape:pageshadow="2"
   inkscape:pageopacity="0.0"
   guidetolerance="10.0"
   gridtolerance="10.0"
   objecttolerance="10.0"
   borderopacity="1.0"
   bordercolor="#666666"
   pagecolor="#ffffff"
   id="base"
   width="751px"
   height="601px"
   inkscape:zoom="1.2733333"
   inkscape:cx="375"
   inkscape:cy="300"
   inkscape:window-x="-1"
   inkscape:window-y="-3"
   inkscape:current-layer="Layer_1" /><defs
   id="defs62">
	
	
	
	
</defs>
<g
   transform="matrix(0.9986685,0,0,0.9986701,0.4993342,0.3989715)"
   id="g5"
   style="fill:#ffffff;fill-opacity:1;stroke:#000000;stroke-width:0.99999899;stroke-miterlimit:4;stroke-dasharray:none;stroke-opacity:1">
		<path
   id="path7"
   style="fill:#ffffff;fill-opacity:1;stroke:#000000;stroke-width:0.99999899;stroke-miterlimit:4;stroke-dasharray:none;stroke-opacity:1"
   d="M 38.915039,0 C 92.236328,15.525391 148.625,23.849609 206.95801,23.849609 C 265.29053,23.849609 321.6792,15.525391 375,0.0004883 C 428.32031,15.525391 484.70898,23.849609 543.04199,23.849609 C 601.375,23.849609 657.76367,15.525391 711.08398,0 C 736.06445,54.121094 750,114.3877 750,177.90918 C 750,395.71777 586.16016,575.25391 375,599.99902 C 163.83887,575.25391 0,395.71777 0,177.90918 C 0,114.3877 13.935059,54.121094 38.915039,0 z " />
		
			<path
   id="path9"
   style="fill:#ffffff;fill-opacity:1;stroke:#000000;stroke-width:0.99999899;stroke-linecap:round;stroke-linejoin:round;stroke-miterlimit:4;stroke-dasharray:none;stroke-opacity:1"
   d="M 38.915039,0 C 92.236328,15.525391 148.625,23.849609 206.95801,23.849609 C 265.29053,23.849609 321.6792,15.525391 375,0.0004883 C 428.32031,15.525391 484.70898,23.849609 543.04199,23.849609 C 601.375,23.849609 657.76367,15.525391 711.08398,0 C 736.06445,54.121094 750,114.3877 750,177.90918 C 750,395.71777 586.16016,575.25391 375,599.99902 C 163.83887,575.25391 0,395.71777 0,177.90918 C 0,114.3877 13.935059,54.121094 38.915039,0 z " />
	</g><g
   transform="matrix(1.0056032,0,0,1.0101352,-2.1013652,-3.7018951)"
   id="g11"
   style="fill:#003f87;fill-opacity:1">
		<path
   id="path13"
   style="fill:#003f87;fill-opacity:1"
   d="M 15,177.90918 C 15,165.12744 15.584961,152.48242 16.729004,139.99902 L 733.27051,139.99902 C 734.41504,152.48242 735,165.12744 735,177.90918 C 735,387.42285 577.85547,560.22852 375,584.89062 C 172.14453,560.22852 15,387.42285 15,177.90918 z " />
	</g><g
   transform="matrix(1.00604,0,0,1.0270827,-2.2645005,-3.1522955)"
   id="g15"
   style="fill:#af1e2d;fill-opacity:1">
		<path
   id="path17"
   style="fill:#af1e2d;fill-opacity:1"
   d="M 47.37793,17.942871 C 98.270019,31.578125 151.76562,38.849121 206.95996,38.849121 C 265.2207,38.849121 321.58936,30.748047 375,15.611328 C 428.41113,30.748047 484.7793,38.849121 543.04004,38.849121 C 598.23438,38.849121 651.73047,31.578613 702.62109,17.942871 C 716.88281,51.567383 726.78516,87.489258 731.61719,124.99902 L 18.381836,124.99902 C 23.214844,87.489258 33.116211,51.567383 47.37793,17.942871 z " />
	</g>



<path
   style="font-size:93.28099823px;font-style:normal;font-variant:normal;font-weight:normal;font-stretch:normal;text-align:center;line-height:125%;writing-mode:lr-tb;text-anchor:middle;fill:#ffffff;fill-opacity:1;font-family:Roadgeek 2005 Series C"
   d="M 183.53777,112.74918 L 183.53777,50.332876 L 192.29397,50.332876 L 192.29397,112.74918 L 183.53777,112.74918 z M 234.32652,112.74918 L 215.04301,70.921299 L 215.04301,112.74918 L 206.09918,112.74918 L 206.09918,50.332876 L 215.04301,50.332876 L 232.18297,87.782657 L 232.18297,50.332876 L 241.1268,50.332876 L 241.1268,112.74918 L 234.32652,112.74918 z M 270.23545,58.625673 L 270.23545,112.74918 L 261.20065,112.74918 L 261.20065,58.625673 L 249.83466,58.625673 L 249.83466,50.332876 L 281.60144,50.332876 L 281.60144,58.625673 L 270.23545,58.625673 z M 290.15862,112.74918 L 290.15862,50.332876 L 319.50325,50.332876 L 319.50325,59.09191 L 299.10244,59.09191 L 299.10244,74.833157 L 312.05195,74.833157 L 312.05195,83.404561 L 299.10244,83.404561 L 299.10244,103.99298 L 321.9254,103.99298 L 321.9254,112.74918 L 290.15862,112.74918 z M 358.17549,112.74918 L 349.88269,83.404561 L 341.31412,83.404561 L 341.31412,112.74918 L 332.3703,112.74918 L 332.3703,50.332876 L 351.0028,50.332876 C 353.42494,50.332938 355.64525,50.736632 357.66375,51.543959 C 359.6822,52.351409 361.42112,53.469623 362.88052,54.898605 C 364.33984,56.327702 365.45758,58.082256 366.23374,60.16227 C 367.00981,62.24239 367.39787,64.524779 367.39791,67.009442 C 367.39787,70.735604 366.65256,73.903088 365.16196,76.511902 C 363.67129,79.120788 361.43533,80.983372 358.4541,82.099661 L 367.39791,112.74918 L 358.17549,112.74918 z M 358.64173,67.009442 C 358.6417,64.587322 357.89637,62.662194 356.40576,61.234051 C 354.9151,59.806011 352.9587,59.091964 350.53656,59.09191 L 341.31412,59.09191 L 341.31412,74.833157 L 350.53656,74.833157 C 353.14444,74.833195 355.14727,74.165584 356.54506,72.830321 C 357.9428,71.495138 358.6417,69.554847 358.64173,67.009442 L 358.64173,67.009442 z M 409.6238,95.700188 C 409.62376,98.247459 409.17363,100.62319 408.27342,102.82739 C 407.37312,105.03161 406.13124,106.94111 404.54777,108.55587 C 402.96423,110.17066 401.13196,111.45945 399.05098,112.42224 C 396.96994,113.38505 394.71835,113.86645 392.29621,113.86645 C 389.56319,113.86645 387.11023,113.33861 384.93731,112.28294 C 382.76436,111.22727 380.93257,109.79918 379.44194,107.99867 C 377.9513,106.19815 376.80229,104.11761 375.9949,101.75704 C 375.18751,99.396471 374.78382,96.943507 374.78382,94.398132 L 383.54002,94.398132 C 383.54001,95.702101 383.71058,96.990416 384.05174,98.26308 C 384.39288,99.535774 384.92071,100.68479 385.63525,101.71013 C 386.34975,102.73548 387.25049,103.5585 388.33744,104.17919 C 389.42436,104.7999 390.74394,105.11026 392.29621,105.11025 C 393.47695,105.11026 394.61079,104.86198 395.69776,104.3654 C 396.78467,103.86886 397.7162,103.18561 398.49235,102.31567 C 399.26844,101.44574 399.88914,100.4365 400.35446,99.287953 C 400.81972,98.139428 401.05236,96.943507 401.05239,95.700188 C 401.05236,93.899691 400.67995,92.301024 399.93513,90.904183 C 399.19025,89.507385 397.8863,88.094455 396.02327,86.665389 C 395.71243,86.35459 395.58828,86.18354 395.65086,86.152242 C 395.71337,86.120997 395.52716,85.950421 395.09222,85.640517 C 394.65723,85.330665 393.74087,84.725124 392.34312,83.823891 C 390.94533,82.922716 388.66293,81.386119 385.49595,79.214097 C 382.95057,77.474265 381.04108,75.439684 379.76746,73.110348 C 378.49382,70.781091 377.85701,68.219622 377.85702,65.425936 C 377.85701,63.189556 378.2607,61.093379 379.0681,59.137398 C 379.87548,57.181525 381.00886,55.458243 382.46824,53.967548 C 383.92759,52.476971 385.62007,51.312324 387.54568,50.473601 C 389.47127,49.635002 391.55134,49.215671 393.7859,49.215607 C 396.0223,49.215671 398.08768,49.619366 399.98204,50.426692 C 401.87634,51.234143 403.52192,52.352357 404.91877,53.781337 C 406.31556,55.210436 407.4333,56.918555 408.272,58.9057 C 409.11062,60.892952 409.56122,63.066363 409.6238,65.425936 L 401.05239,65.425936 C 400.92917,63.2521 400.18433,61.513183 398.81786,60.209179 C 397.45135,58.90528 395.77402,58.253304 393.7859,58.25325 C 391.73707,58.253304 389.99863,58.936552 388.57055,60.302995 C 387.14245,61.669543 386.4284,63.377188 386.42842,65.425936 C 386.4284,66.978216 386.83209,68.282167 387.63951,69.337794 C 388.44687,70.393507 389.99911,71.573317 392.29621,72.877229 C 398.32127,76.355103 402.71547,79.895009 405.47882,83.496955 C 408.24211,87.09896 409.62376,91.166701 409.6238,95.700188 L 409.6238,95.700188 z M 435.62513,58.625673 L 435.62513,112.74918 L 426.59034,112.74918 L 426.59034,58.625673 L 415.22435,58.625673 L 415.22435,50.332876 L 446.99113,50.332876 L 446.99113,58.625673 L 435.62513,58.625673 z M 481.6321,112.74918 L 477.25401,95.700188 L 463.83827,95.700188 L 459.74164,112.74918 L 450.70398,112.74918 L 466.26044,50.332876 L 475.01948,50.332876 L 490.57593,112.74918 L 481.6321,112.74918 z M 470.45374,68.965371 L 466.07565,86.943996 L 475.01948,86.943996 L 470.45374,68.965371 z M 514.77201,58.625673 L 514.77201,112.74918 L 505.73722,112.74918 L 505.73722,58.625673 L 494.37123,58.625673 L 494.37123,50.332876 L 526.13801,50.332876 L 526.13801,58.625673 L 514.77201,58.625673 z M 534.6952,112.74918 L 534.6952,50.332876 L 564.03982,50.332876 L 564.03982,59.09191 L 543.63903,59.09191 L 543.63903,74.833157 L 556.58852,74.833157 L 556.58852,83.404561 L 543.63903,83.404561 L 543.63903,103.99298 L 566.46199,103.99298 L 566.46199,112.74918 L 534.6952,112.74918 z "
   id="text7023" />

<path
   style="font-size:373.12701416px;font-style:normal;font-variant:normal;font-weight:normal;font-stretch:normal;text-align:center;line-height:125%;writing-mode:lr-tb;text-anchor:middle;fill:#ffffff;fill-opacity:1;font-family:Roadgeek 2005 Series C"
   d="M 267.46275,365.16731 C 267.46258,377.09258 265.84779,387.89954 262.61837,397.58824 C 259.38864,407.27702 254.73001,415.65989 248.64247,422.73691 C 242.55464,429.81395 235.1649,435.27807 226.47321,439.12931 C 217.78126,442.98055 208.09442,444.90617 197.41264,444.90617 C 174.55531,444.90617 157.28919,437.01985 145.61423,421.2472 C 133.93919,405.47459 128.10168,383.30155 128.1017,354.72803 C 128.10168,339.58092 130.0273,324.36741 133.87857,309.08742 C 137.72977,293.8077 143.31898,279.02632 150.64624,264.74321 C 157.9734,250.46045 166.97794,236.85982 177.65988,223.94129 C 188.34167,211.02319 200.51324,199.34818 214.17464,188.91624 L 234.30266,217.23195 C 229.08669,221.2047 223.8083,225.92399 218.46748,231.38979 C 213.12643,236.85604 208.09442,242.63289 203.37145,248.72038 C 198.64828,254.80825 194.42367,261.08167 190.69762,267.54065 C 186.97138,273.99999 183.99008,280.20898 181.75371,286.16762 C 184.74062,285.67499 187.53807,285.4286 190.14609,285.42845 C 192.75392,285.4286 195.17611,285.4286 197.41264,285.42845 C 208.09442,285.4286 217.78126,287.35234 226.47321,291.19963 C 235.1649,295.04722 242.55464,300.51136 248.64247,307.59204 C 254.73001,314.67299 259.38864,323.05777 262.61837,332.74639 C 265.84779,342.43524 267.46258,353.2422 267.46275,365.16731 L 267.46275,365.16731 z M 232.43769,365.16731 C 232.43756,351.74872 229.20799,340.81666 222.74895,332.37113 C 216.28967,323.92581 207.84424,319.70309 197.41264,319.70297 C 186.73067,319.70309 178.22271,323.67752 171.88871,331.62628 C 165.55457,339.57524 162.38753,349.51227 162.38759,361.43738 C 162.38753,375.59908 165.55457,387.21344 171.88871,396.28048 C 178.22271,405.3476 186.73067,409.88114 197.41264,409.88111 C 207.84424,409.88114 216.28967,405.72098 222.74895,397.4006 C 229.20799,389.0803 232.43756,378.33589 232.43769,365.16731 L 232.43769,365.16731 z M 437.41386,225.80626 C 426.23906,238.47461 416.30393,252.8201 407.60844,268.84274 C 398.91272,284.8657 391.08894,302.93733 384.13711,323.05765 C 377.42767,342.18507 372.58141,360.87834 369.5983,379.13754 C 366.61503,397.39685 364.62686,417.83001 363.63381,440.43707 L 328.60876,440.43707 L 328.60876,435.21743 C 328.60872,429.00844 328.98209,421.80444 329.72887,413.60537 C 330.47558,405.40637 331.53126,396.89839 332.89591,388.08143 C 334.26048,379.26458 335.81272,370.32259 337.55265,361.25542 C 339.29248,352.18842 341.28064,343.55346 343.51714,335.35053 C 346.2463,325.4193 349.16317,315.92009 352.26772,306.85287 C 355.37215,297.78592 358.85002,288.90458 362.70132,280.20881 C 366.55248,271.51337 370.83774,262.75522 375.55711,253.93434 C 380.27629,245.11383 385.74422,235.73781 391.96089,225.80626 L 298.0528,225.80626 L 298.0528,190.76984 L 437.41386,190.76984 L 437.41386,225.80626 L 437.41386,225.80626 z M 621.89806,365.16731 C 621.8979,377.09258 620.28312,387.89954 617.0537,397.58824 C 613.82396,407.27702 609.16532,415.65989 603.07778,422.73691 C 596.98997,429.81395 589.60022,435.27807 580.90851,439.12931 C 572.21659,442.98055 562.52974,444.90617 551.84797,444.90617 C 528.99063,444.90617 511.72451,437.01985 500.04955,421.2472 C 488.3745,405.47459 482.537,383.30155 482.53702,354.72803 C 482.537,339.58092 484.46261,324.36741 488.31387,309.08742 C 492.16509,293.8077 497.75431,279.02632 505.08156,264.74321 C 512.40871,250.46045 521.41325,236.85982 532.09519,223.94129 C 542.777,211.02319 554.94857,199.34818 568.60995,188.91624 L 588.73799,217.23195 C 583.52202,221.2047 578.24362,225.92399 572.90279,231.38979 C 567.56174,236.85604 562.52974,242.63289 557.80677,248.72038 C 553.0836,254.80825 548.85898,261.08167 545.13293,267.54065 C 541.4067,273.99999 538.4254,280.20898 536.18903,286.16762 C 539.17594,285.67499 541.97339,285.4286 544.5814,285.42845 C 547.18923,285.4286 549.61143,285.4286 551.84797,285.42845 C 562.52974,285.4286 572.21659,287.35234 580.90851,291.19963 C 589.60022,295.04722 596.98997,300.51136 603.07778,307.59204 C 609.16532,314.67299 613.82396,323.05777 617.0537,332.74639 C 620.28312,342.43524 621.8979,353.2422 621.89806,365.16731 L 621.89806,365.16731 z M 586.87301,365.16731 C 586.87288,351.74872 583.64331,340.81666 577.18426,332.37113 C 570.72498,323.92581 562.27957,319.70309 551.84797,319.70297 C 541.166,319.70309 532.65803,323.67752 526.32402,331.62628 C 519.98988,339.57524 516.82286,349.51227 516.82291,361.43738 C 516.82286,375.59908 519.98988,387.21344 526.32402,396.28048 C 532.65803,405.3476 541.166,409.88114 551.84797,409.88111 C 562.27957,409.88114 570.72498,405.72098 577.18426,397.4006 C 583.64331,389.0803 586.87288,378.33589 586.87301,365.16731 L 586.87301,365.16731 z "
   id="text7029" />

</svg>