<?xml version="1.0" encoding="UTF-8" standalone="no"?>
<!-- Created with Inkscape (http://www.inkscape.org/) -->
<svg
   xmlns:dc="http://purl.org/dc/elements/1.1/"
   xmlns:cc="http://web.resource.org/cc/"
   xmlns:rdf="http://www.w3.org/1999/02/22-rdf-syntax-ns#"
   xmlns:svg="http://www.w3.org/2000/svg"
   xmlns="http://www.w3.org/2000/svg"
   xmlns:sodipodi="http://sodipodi.sourceforge.net/DTD/sodipodi-0.dtd"
   xmlns:inkscape="http://www.inkscape.org/namespaces/inkscape"
   width="750"
   height="600"
   id="svg2"
   sodipodi:version="0.32"
   inkscape:version="0.44"
   version="1.0"
   sodipodi:docbase="G:\Wikipedia\2006 Route Signs\Pennsylvania\New"
   sodipodi:docname="PA-100.svg">
  <defs
     id="defs4" />
  <sodipodi:namedview
     id="base"
     pagecolor="#ffffff"
     bordercolor="#666666"
     borderopacity="1.0"
     gridtolerance="10000"
     guidetolerance="10"
     objecttolerance="10"
     inkscape:pageopacity="0.0"
     inkscape:pageshadow="2"
     inkscape:zoom="1.25"
     inkscape:cx="375"
     inkscape:cy="300"
     inkscape:document-units="in"
     inkscape:current-layer="layer1"
     width="750px"
     height="600px"
     inkscape:window-width="1280"
     inkscape:window-height="945"
     inkscape:window-x="-4"
     inkscape:window-y="-4"
     units="in" />
  <metadata
     id="metadata7">
    <rdf:RDF>
      <cc:Work
         rdf:about="">
        <dc:format>image/svg+xml</dc:format>
        <dc:type
           rdf:resource="http://purl.org/dc/dcmitype/StillImage" />
      </cc:Work>
    </rdf:RDF>
  </metadata>
  <g
     inkscape:label="Layer 1"
     inkscape:groupmode="layer"
     id="layer1">
    <path
       style="fill:black;fill-opacity:1;stroke:black;stroke-width:0.45572799;stroke-miterlimit:4;stroke-opacity:1"
       d="M 74.771819,562.49951 C 74.771819,583.07367 58.073945,599.77154 37.49978,599.77154 C 16.925615,599.77154 0.22774081,583.07367 0.22774081,562.49951 C 0.22774081,541.92534 16.925615,525.22746 37.49978,525.22746 C 58.073945,525.22746 74.771819,541.92534 74.771819,562.49951 z "
       id="path2885" />
    <path
       style="fill:black;fill-opacity:1;stroke:black;stroke-width:0.45572799;stroke-miterlimit:4;stroke-opacity:1"
       d="M 749.77238,562.49951 C 749.77238,583.07367 733.07451,599.77154 712.50034,599.77154 C 691.92617,599.77154 675.2283,583.07367 675.2283,562.49951 C 675.2283,541.92534 691.92617,525.22746 712.50034,525.22746 C 733.07451,525.22746 749.77238,541.92534 749.77238,562.49951 z "
       id="path2887" />
    <path
       style="fill:black;fill-opacity:1;stroke:black;stroke-width:0.45572799;stroke-miterlimit:4;stroke-opacity:1"
       d="M 74.771819,37.498907 C 74.771819,58.073066 58.073945,74.77094 37.49978,74.77094 C 16.925615,74.77094 0.22774081,58.073066 0.22774081,37.498907 C 0.22774081,16.924736 16.925615,0.22686163 37.49978,0.22686163 C 58.073945,0.22686163 74.771819,16.924736 74.771819,37.498907 z "
       id="path2889" />
    <path
       style="fill:black;fill-opacity:1;stroke:black;stroke-width:0.45572799;stroke-miterlimit:4;stroke-opacity:1"
       d="M 749.77238,37.498907 C 749.77238,58.073066 733.07451,74.77094 712.50034,74.77094 C 691.92617,74.77094 675.2283,58.073066 675.2283,37.498907 C 675.2283,16.924736 691.92617,0.22686163 712.50034,0.22686163 C 733.07451,0.22686163 749.77238,16.924736 749.77238,37.498907 z "
       id="path2891" />
    <path
       style="fill:black;fill-opacity:1;stroke:black;stroke-width:1.58778489;stroke-miterlimit:4;stroke-opacity:1"
       d="M 38.293874,0.79322588 L 711.70662,0.79322588 L 711.70662,599.20591 L 38.293874,599.20591 L 38.293874,0.79322588 z "
       id="rect2893" />
    <path
       style="fill:black;fill-opacity:1;stroke:black;stroke-width:3.71521139;stroke-miterlimit:4;stroke-opacity:1"
       d="M 1.8575585,39.35699 L 748.14295,39.35699 L 748.14295,560.64221 L 1.8575585,560.64221 L 1.8575585,39.35699 z "
       id="rect7320" />
    <path
       style="fill:white;fill-opacity:1;fill-rule:evenodd;stroke:none;stroke-width:1px;stroke-linecap:butt;stroke-linejoin:miter;stroke-opacity:1"
       d="M 130.70814,24.99942 L 147.50528,125.25567 L 18.749981,125.25567 L 90.826672,574.99986 L 659.17385,574.99986 L 731.25055,125.25567 L 602.49525,125.25567 L 619.29241,24.99942 L 130.70814,24.99942 z "
       id="path8224"
       sodipodi:nodetypes="ccccccccc" />
    <path
       style="font-size:430px;fill:black;font-family:Roadgeek 2005 Series D"
       d="M 100.4892,458.05289 L 100.4892,224.5632 L 74.257202,224.5632 L 74.257202,188.01688 L 77.262268,188.01688 C 83.281111,188.01715 89.299985,186.44025 95.318909,183.28619 C 101.33773,180.13268 106.35492,175.68633 110.37048,169.94711 L 146.91681,169.94711 L 146.91681,458.05289 L 100.4892,458.05289 z M 413.71155,314.42648 C 413.71132,337.36484 410.98839,359.29698 405.54276,380.22299 C 400.09667,401.14916 392.35656,418.06412 382.32239,430.96793 C 366.26894,452.46268 343.05078,463.21005 312.66785,463.21005 C 292.31027,463.21005 275.53966,459.05457 262.35596,450.74362 C 249.17209,442.43268 238.28038,429.38887 229.68079,411.61215 C 223.66186,399.28575 218.78902,384.30856 215.06226,366.68051 C 211.33542,349.05265 209.47202,331.63466 209.47205,314.42648 C 209.47202,290.63983 212.26712,268.56989 217.85736,248.21661 C 223.44753,227.86376 231.11547,210.80663 240.86121,197.0452 C 249.46079,186.15374 259.7095,178.05495 271.60736,172.74878 C 283.50504,167.44318 297.76488,164.79024 314.3869,164.78995 C 332.73209,164.79024 348.35448,168.9479 361.25412,177.26294 C 374.1534,185.57854 385.19165,198.62016 394.3689,216.38785 C 400.38756,229.29193 405.11605,244.34349 408.55438,261.54257 C 411.99226,278.74205 413.71132,296.37 413.71155,314.42648 L 413.71155,314.42648 z M 368.1369,314.42648 C 368.13671,298.09343 366.70417,282.97407 363.83926,269.06836 C 360.97399,255.16302 356.67198,243.33742 350.93323,233.59152 C 346.34892,226.13814 341.11958,220.69228 335.24521,217.25394 C 329.37053,213.81607 322.13344,211.80832 313.53394,211.23068 C 302.35339,210.66229 293.03639,213.24305 285.58289,218.97299 C 278.12918,224.70341 271.96595,234.02042 267.0932,246.92404 C 263.36631,255.52389 260.57121,265.91476 258.70789,278.09668 C 256.84441,290.27896 255.91271,302.38888 255.91278,314.42648 C 255.91271,329.91123 257.34525,344.82063 260.21042,359.15472 C 263.07543,373.48902 267.37306,385.24026 273.10333,394.40848 C 277.69613,401.86215 283.14417,407.45235 289.44748,411.17911 C 295.75057,414.90596 303.49068,416.76936 312.66785,416.76932 C 323.27073,416.76936 332.08471,413.90427 339.1098,408.17404 C 346.13458,402.44391 352.08347,393.12691 356.95648,380.22299 C 358.39104,376.49627 359.82577,371.98211 361.26068,366.68051 C 362.69523,361.37909 363.91344,355.78889 364.91531,349.90988 C 365.91682,344.03109 366.70417,338.0822 367.27737,332.0632 C 367.85021,326.04445 368.13671,320.16555 368.1369,314.42648 L 368.1369,314.42648 z M 675.7428,314.42648 C 675.74257,337.36484 673.01964,359.29698 667.57401,380.22299 C 662.12792,401.14916 654.38781,418.06412 644.35364,430.96793 C 628.30019,452.46268 605.08203,463.21005 574.6991,463.21005 C 554.34152,463.21005 537.57091,459.05457 524.38721,450.74362 C 511.20334,442.43268 500.31163,429.38887 491.71204,411.61215 C 485.69311,399.28575 480.82027,384.30856 477.09351,366.68051 C 473.36667,349.05265 471.50327,331.63466 471.5033,314.42648 C 471.50327,290.63983 474.29837,268.56989 479.88861,248.21661 C 485.47878,227.86376 493.14672,210.80663 502.89246,197.0452 C 511.49204,186.15374 521.74075,178.05495 533.63861,172.74878 C 545.53629,167.44318 559.79613,164.79024 576.41815,164.78995 C 594.76334,164.79024 610.38573,168.9479 623.28537,177.26294 C 636.18465,185.57854 647.2229,198.62016 656.40015,216.38785 C 662.41881,229.29193 667.1473,244.34349 670.58563,261.54257 C 674.02351,278.74205 675.74257,296.37 675.7428,314.42648 L 675.7428,314.42648 z M 630.16815,314.42648 C 630.16796,298.09343 628.73542,282.97407 625.87051,269.06836 C 623.00524,255.16302 618.70323,243.33742 612.96448,233.59152 C 608.38017,226.13814 603.15083,220.69228 597.27646,217.25394 C 591.40178,213.81607 584.16469,211.80832 575.56519,211.23068 C 564.38464,210.66229 555.06764,213.24305 547.61414,218.97299 C 540.16043,224.70341 533.9972,234.02042 529.12445,246.92404 C 525.39756,255.52389 522.60246,265.91476 520.73914,278.09668 C 518.87566,290.27896 517.94396,302.38888 517.94403,314.42648 C 517.94396,329.91123 519.3765,344.82063 522.24167,359.15472 C 525.10668,373.48902 529.40431,385.24026 535.13458,394.40848 C 539.72738,401.86215 545.17542,407.45235 551.47873,411.17911 C 557.78182,414.90596 565.52193,416.76936 574.6991,416.76932 C 585.30198,416.76936 594.11596,413.90427 601.14105,408.17404 C 608.16583,402.44391 614.11472,393.12691 618.98773,380.22299 C 620.42229,376.49627 621.85702,371.98211 623.29193,366.68051 C 624.72648,361.37909 625.94469,355.78889 626.94656,349.90988 C 627.94807,344.03109 628.73542,338.0822 629.30862,332.0632 C 629.88146,326.04445 630.16796,320.16555 630.16815,314.42648 L 630.16815,314.42648 z "
       id="text1979" />
  </g>
</svg>
