<?xml version="1.0" encoding="UTF-8" standalone="no"?>
<!-- Created with Inkscape (http://www.inkscape.org/) -->
<svg
   xmlns:dc="http://purl.org/dc/elements/1.1/"
   xmlns:cc="http://web.resource.org/cc/"
   xmlns:rdf="http://www.w3.org/1999/02/22-rdf-syntax-ns#"
   xmlns:svg="http://www.w3.org/2000/svg"
   xmlns="http://www.w3.org/2000/svg"
   xmlns:sodipodi="http://sodipodi.sourceforge.net/DTD/sodipodi-0.dtd"
   xmlns:inkscape="http://www.inkscape.org/namespaces/inkscape"
   version="1.0"
   width="600"
   height="600"
   id="svg2"
   sodipodi:version="0.32"
   inkscape:version="0.45.1"
   sodipodi:docname="PA-23.svg"
   inkscape:output_extension="org.inkscape.output.svg.inkscape"
   sodipodi:docbase="C:\Documents and Settings\HP_Administrator\My Documents\My Pictures\US Roads\PA">
  <metadata
     id="metadata2261">
    <rdf:RDF>
      <cc:Work
         rdf:about="">
        <dc:format>image/svg+xml</dc:format>
        <dc:type
           rdf:resource="http://purl.org/dc/dcmitype/StillImage" />
      </cc:Work>
    </rdf:RDF>
  </metadata>
  <sodipodi:namedview
     inkscape:window-height="974"
     inkscape:window-width="1280"
     inkscape:pageshadow="2"
     inkscape:pageopacity="0.0"
     guidetolerance="10.0"
     gridtolerance="10.0"
     objecttolerance="10.0"
     borderopacity="1.0"
     bordercolor="#666666"
     pagecolor="#ffffff"
     id="base"
     inkscape:zoom="0.62833333"
     inkscape:cx="291.45136"
     inkscape:cy="321.47009"
     inkscape:window-x="-8"
     inkscape:window-y="-8"
     inkscape:current-layer="svg2" />
  <defs
     id="defs4" />
  <g
     id="layer1">
    <g
       id="g1876">
      <path
         d="M 37.50003,0 L 562.50045,0 C 583.27547,0 600.00048,16.725013 600.00048,37.50003 L 600.00048,562.50045 C 600.00048,583.27547 583.27547,600.00048 562.50045,600.00048 L 37.50003,600.00048 C 16.725013,600.00048 0,583.27547 0,562.50045 L 0,37.50003 C 0,16.725013 16.725013,0 37.50003,0 z "
         style="fill:black;fill-opacity:1"
         id="rect1884" />
      <path
         d="M 130.71191,25.00002 L 147.5088,125.26052 L 18.750015,125.26052 L 90.824725,575.00046 L 511.10285,575.00046 L 583.17755,125.26052 L 454.41878,125.26052 L 471.21565,25.00002 L 130.71191,25.00002 z "
         style="fill:white;fill-opacity:1;fill-rule:evenodd;stroke:none;stroke-width:1px;stroke-linecap:butt;stroke-linejoin:miter;stroke-opacity:1"
         id="path8224" />
    </g>
  </g>
  <path
     style="font-size:450px;font-style:normal;font-weight:normal;text-align:center;text-anchor:middle;fill:#000000;fill-opacity:1;stroke:none;stroke-width:1px;stroke-linecap:butt;stroke-linejoin:miter;stroke-opacity:1;font-family:Roadgeek 2005 Series D"
     d="M 84.49118,446.85663 C 85.046572,430.33931 87.144348,415.21909 90.784515,401.49591 C 94.424614,387.77283 100.1668,374.19496 108.01108,360.76227 C 113.88993,350.11539 121.16806,340.24174 129.84549,331.1413 C 138.52278,322.04108 147.76196,313.85078 157.56308,306.57037 C 160.08373,305.17769 162.32463,303.7101 164.2858,302.1676 C 166.24675,300.62539 168.20567,299.15353 170.16257,297.75201 L 185.28708,289.7796 L 199.14267,281.79437 L 212.5881,274.23212 C 218.18487,270.59216 222.7329,266.04199 226.23221,260.5816 C 229.73118,255.12159 231.48075,249.45204 231.48093,243.57294 C 231.48075,238.2582 230.08152,233.28934 227.28323,228.66632 C 224.4846,224.04374 220.77611,220.05327 216.15775,216.69489 C 211.53906,213.33696 206.14936,210.67736 199.98862,208.71606 C 193.82759,206.75524 187.24801,205.77472 180.24985,205.77448 C 165.97117,205.77472 154.42059,209.135 145.59805,215.85535 C 136.77534,222.57615 131.24465,232.37503 129.00595,245.25201 L 84.49118,235.60052 C 89.250669,212.07659 100.16893,193.66444 117.246,180.36401 C 134.32295,167.06412 155.32421,160.41404 180.24985,160.41376 C 193.69087,160.41404 206.21985,162.65495 217.83682,167.13647 C 229.45347,171.61856 239.5322,177.63845 248.07303,185.19617 C 256.61348,192.7544 263.40455,201.64325 268.44626,211.86273 C 273.48755,222.08268 276.0083,232.93472 276.00851,244.41888 C 276.0083,255.33949 273.55804,266.0484 268.65775,276.54565 C 263.75703,287.04325 256.68825,296.35507 247.45139,304.48114 C 245.21243,306.15609 243.18301,307.69417 241.36313,309.0954 C 239.54288,310.4969 237.65018,311.61629 235.68503,312.45355 L 221.82944,321.27191 L 206.70493,329.25714 L 192.84933,337.24237 C 186.12435,341.15605 180.17282,345.28324 174.99472,349.62396 C 169.81638,353.96488 165.05687,358.65603 160.71616,363.69745 C 156.37524,368.73903 152.31427,374.34022 148.53323,380.50104 C 144.75202,386.66199 141.18238,393.66027 137.82431,401.49591 L 276.00851,401.49591 L 276.00851,446.85663 L 84.49118,446.85663 z M 517.0394,354.03314 C 517.03918,368.31179 514.65943,381.47095 509.90012,393.51068 C 505.14039,405.55052 498.49031,415.84073 489.94986,424.38135 C 481.40903,432.92201 471.18932,439.64259 459.29068,444.54309 C 447.39173,449.4436 434.30306,451.89385 420.02463,451.89386 C 408.54015,451.89385 397.8291,450.07379 387.89145,446.43365 C 377.95363,442.79352 368.8533,437.75416 360.59042,431.31555 C 352.32744,424.87698 345.25652,417.03702 339.37766,407.79565 C 333.49872,398.55437 329.1579,388.1958 326.35519,376.71991 L 370.03683,364.12042 C 373.40346,377.83509 379.56648,388.33252 388.52591,395.61273 C 397.48517,402.89305 408.68541,406.53318 422.12668,406.53314 C 429.68026,406.53318 436.53756,405.27281 442.69858,402.75201 C 448.85932,400.23131 454.11017,396.80266 458.45114,392.46606 C 462.7918,388.12958 466.22259,382.95136 468.7435,376.9314 C 471.26408,370.91157 472.52446,364.2615 472.52463,356.98114 C 472.52446,349.70096 471.12309,342.8394 468.32053,336.39642 C 465.51763,329.95367 461.59979,324.91217 456.56699,321.27191 C 454.88349,320.15265 453.41162,319.24262 452.1514,318.54181 C 450.89087,317.84125 449.35065,317.35206 447.53073,317.07422 C 445.71052,316.79664 443.33076,316.51679 440.39145,316.23468 C 437.45186,315.95283 433.3204,315.67512 427.99704,315.40155 L 422.95981,315.40155 L 422.95981,270.04083 L 422.95981,271.29694 L 424.21591,271.29694 L 425.06186,271.29694 L 433.88022,271.29694 C 442.8437,271.29711 449.70527,268.91735 454.46494,264.15765 C 459.2243,259.39832 461.60406,252.53675 461.60422,243.57294 C 461.60406,232.65274 457.75458,223.6229 450.05576,216.4834 C 442.35664,209.34435 432.76498,205.77472 421.28073,205.77448 C 402.52453,205.77472 388.3827,215.01604 378.85519,233.49847 L 337.2756,217.95099 C 344.55584,200.03253 355.54673,185.96333 370.24832,175.74335 C 384.94978,165.5239 401.54186,160.41404 420.02463,160.41376 C 431.78231,160.41404 442.91206,162.65495 453.41391,167.13647 C 463.91546,171.61856 473.08629,177.77944 480.92642,185.61914 C 488.7662,193.45936 494.92495,202.62805 499.40268,213.12524 C 503.88002,223.6229 506.11879,234.75479 506.11899,246.52094 C 506.11879,254.92079 504.9994,262.4809 502.76083,269.20129 C 500.52187,275.92205 496.32204,283.75987 490.16135,292.71478 C 495.48464,297.47445 499.82546,302.02462 503.18381,306.3653 C 506.54176,310.70625 509.27186,315.25642 511.37411,320.01581 C 513.47596,324.77545 514.94568,329.88531 515.78329,335.3454 C 516.62048,340.80571 517.03918,347.03495 517.0394,354.03314 L 517.0394,354.03314 z "
     id="text2263" />
</svg>
