<?xml version="1.0" encoding="UTF-8" standalone="no"?>
<!-- Created with Inkscape (http://www.inkscape.org/) -->
<svg
   xmlns:svg="http://www.w3.org/2000/svg"
   xmlns="http://www.w3.org/2000/svg"
   version="1.0"
   width="750"
   height="600"
   id="svg2">
  <defs
     id="defs4" />
  <g
     id="layer1">
    <g
       id="g1874">
      <path
         d="M 37.50003,0 L 712.50057,0 C 733.27559,0 750.0006,16.725013 750.0006,37.50003 L 750.0006,562.50045 C 750.0006,583.27547 733.27559,600.00048 712.50057,600.00048 L 37.50003,600.00048 C 16.725013,600.00048 0,583.27547 0,562.50045 L 0,37.50003 C 0,16.725013 16.725013,0 37.50003,0 z "
         id="rect1880" />
      <path
         d="M 130.70817,25.00002 L 147.50531,125.25627 L 18.750015,125.25627 L 90.826706,575.00046 L 659.17389,575.00046 L 731.25059,125.25627 L 602.49529,125.25627 L 619.29244,25.00002 L 130.70817,25.00002 z "
         style="fill:white;fill-opacity:1;fill-rule:evenodd;stroke:none;stroke-width:1px;stroke-linecap:butt;stroke-linejoin:miter;stroke-opacity:1"
         id="path8224" />
      <path
         d="M 79.235662,458.00037 C 79.81734,440.70132 82.014399,424.86549 85.826848,410.49282 C 89.639225,396.12025 95.653172,381.89977 103.86871,367.83134 C 110.02579,356.68057 117.64838,346.33962 126.7365,336.80847 C 135.82446,327.27756 145.50092,318.69963 155.7659,311.07466 C 158.40585,309.61606 160.75281,308.07902 162.80679,306.46351 C 164.86055,304.84831 166.91218,303.30679 168.9617,301.83894 L 184.80202,293.48921 L 199.31337,285.12606 L 213.39514,277.2059 C 219.25679,273.39367 224.02007,268.62815 227.68499,262.90934 C 231.34957,257.19091 233.18194,251.25303 233.18212,245.09569 C 233.18194,239.52942 231.71649,234.32538 228.78576,229.48357 C 225.85468,224.64221 221.97067,220.46288 217.13373,216.94555 C 212.29645,213.42871 206.65166,210.64323 200.19935,208.58911 C 193.74674,206.53549 186.85575,205.50855 179.52639,205.5083 C 164.57193,205.50855 152.47468,209.02788 143.23459,216.06628 C 133.99432,223.10517 128.20187,233.36781 125.85722,246.85423 L 79.235662,236.74596 C 84.220408,212.10868 95.655409,192.82512 113.5407,178.89522 C 131.42587,164.96587 153.42107,158.00106 179.52639,158.00076 C 193.60355,158.00106 206.7255,160.34802 218.89227,165.04165 C 231.05871,169.73586 241.61444,176.04066 250.5595,183.95607 C 259.50415,191.87202 266.61662,201.18156 271.89695,211.8847 C 277.17683,222.58834 279.81688,233.95399 279.81711,245.98167 C 279.81688,257.41912 277.25066,268.63486 272.11844,279.62893 C 266.98578,290.62336 259.58245,300.37589 249.90843,308.88655 C 247.56351,310.64076 245.43804,312.25164 243.53203,313.71919 C 241.62563,315.18702 239.64335,316.35938 237.5852,317.23628 L 223.07385,326.47199 L 207.23353,334.83514 L 192.72218,343.1983 C 185.67892,347.2972 179.44571,351.61973 174.02254,356.16588 C 168.59913,360.71224 163.61435,365.62542 159.06821,370.90544 C 154.52184,376.18563 150.26867,382.05191 146.30869,388.5043 C 142.34852,394.95684 138.60994,402.28634 135.09294,410.49282 L 279.81711,410.49282 L 279.81711,458.00037 L 79.235662,458.00037 z M 538.41708,252.14329 C 538.41685,272.37792 535.70297,292.53851 530.27543,312.62513 C 524.84744,332.71204 517.14878,351.99336 507.17943,370.46916 C 497.20968,388.94513 485.1885,406.09875 471.11585,421.93007 C 457.04287,437.76147 441.50013,451.54343 424.48757,463.276 L 402.05607,423.68862 C 410.85316,416.65448 418.69724,409.83733 425.58834,403.23715 C 432.47921,396.63707 438.71018,389.81769 444.28127,382.77897 C 449.85209,375.7404 454.98452,368.26324 459.6786,360.34746 C 464.37237,352.43188 468.91639,343.63245 473.31067,333.94916 C 464.80865,335.41697 458.28459,336.44391 453.73848,337.02997 C 449.19207,337.61627 443.98804,337.90936 438.12636,337.90924 C 424.34427,337.90936 411.36775,335.56464 399.19675,330.87506 C 387.02558,326.18574 376.39378,319.80935 367.30132,311.74586 C 358.20875,303.68266 351.02468,294.15163 345.74909,283.15273 C 340.47342,272.15419 337.83561,260.49769 337.83564,248.18321 C 337.83561,235.57382 340.47342,223.76965 345.74909,212.77069 C 351.02468,201.77221 358.13492,192.24118 367.07983,184.17756 C 376.02462,176.11449 386.58259,169.73586 398.75376,165.04165 C 410.92476,160.34802 424.04894,158.00106 438.12636,158.00076 C 452.20352,158.00106 465.3993,160.42185 477.71374,165.26314 C 490.02785,170.10502 500.65741,176.70291 509.60246,185.05683 C 518.54711,193.4113 525.58576,203.30702 530.71842,214.74402 C 535.85064,226.1815 538.41685,238.64791 538.41708,252.14329 L 538.41708,252.14329 z M 491.7821,248.18321 C 491.78192,242.60799 490.31646,237.18022 487.38574,231.89989 C 484.45466,226.62001 480.57065,222.07376 475.7337,218.2611 C 470.89643,214.44893 465.25164,211.37036 458.79933,209.02539 C 452.34671,206.68092 445.45573,205.50855 438.12636,205.5083 C 430.79673,205.50855 423.97958,206.60932 417.67489,208.81061 C 411.36998,211.01239 405.79679,214.01936 400.9553,217.83154 C 396.11362,221.64419 392.30121,226.18821 389.51805,231.46361 C 386.73473,236.73947 385.34311,242.31266 385.34318,248.18321 C 385.34311,254.04522 386.73473,259.54235 389.51805,264.67459 C 392.30121,269.80723 396.11362,274.27965 400.9553,278.09188 C 405.79679,281.90448 411.36998,284.90921 417.67489,287.1061 C 423.97958,289.30333 430.79673,290.40186 438.12636,290.40169 C 445.45573,290.40186 452.42054,289.30333 459.02082,287.1061 C 465.6208,284.90921 471.33942,281.90448 476.1767,278.09188 C 481.01364,274.27965 484.82382,269.80723 487.60723,264.67459 C 490.3903,259.54235 491.78192,254.04522 491.7821,248.18321 L 491.7821,248.18321 z M 623.27019,458.00037 L 623.27019,219.14709 L 596.43561,219.14709 L 596.43561,181.76124 L 599.50971,181.76124 C 605.66681,181.76152 611.82395,180.1484 617.98114,176.92189 C 624.13822,173.69594 629.27066,169.14744 633.37847,163.27639 L 670.76432,163.27639 L 670.76432,458.00037 L 623.27019,458.00037 z "
         style="font-size:439.87771606px"
         id="text1876" />
    </g>
  </g>
</svg>
