<?xml version="1.0" encoding="UTF-8" standalone="no"?>
<!-- Created with Inkscape (http://www.inkscape.org/) -->
<svg
   xmlns:dc="http://purl.org/dc/elements/1.1/"
   xmlns:cc="http://web.resource.org/cc/"
   xmlns:rdf="http://www.w3.org/1999/02/22-rdf-syntax-ns#"
   xmlns:svg="http://www.w3.org/2000/svg"
   xmlns="http://www.w3.org/2000/svg"
   xmlns:sodipodi="http://sodipodi.sourceforge.net/DTD/sodipodi-0.dtd"
   xmlns:inkscape="http://www.inkscape.org/namespaces/inkscape"
   width="750"
   height="600"
   id="svg2"
   sodipodi:version="0.32"
   inkscape:version="0.44"
   version="1.0"
   sodipodi:docbase="C:\Documents and Settings\HP_Administrator\My Documents\Shields\PA"
   sodipodi:docname="PA-309.svg">
  <defs
     id="defs4" />
  <sodipodi:namedview
     id="base"
     pagecolor="#ffffff"
     bordercolor="#666666"
     borderopacity="1.0"
     gridtolerance="10000"
     guidetolerance="10"
     objecttolerance="10"
     inkscape:pageopacity="0.0"
     inkscape:pageshadow="2"
     inkscape:zoom="0.28284271"
     inkscape:cx="1343.0814"
     inkscape:cy="1029.8273"
     inkscape:document-units="in"
     inkscape:current-layer="layer1"
     width="750px"
     height="600px"
     inkscape:window-width="1280"
     inkscape:window-height="968"
     inkscape:window-x="-4"
     inkscape:window-y="-4"
     units="in" />
  <metadata
     id="metadata7">
    <rdf:RDF>
      <cc:Work
         rdf:about="">
        <dc:format>image/svg+xml</dc:format>
        <dc:type
           rdf:resource="http://purl.org/dc/dcmitype/StillImage" />
      </cc:Work>
    </rdf:RDF>
  </metadata>
  <g
     inkscape:label="Layer 1"
     inkscape:groupmode="layer"
     id="layer1">
    <g
       id="g1893">
      <path
         id="path2885"
         d="M 74.771819,562.49951 C 74.771819,583.07367 58.073945,599.77154 37.49978,599.77154 C 16.925615,599.77154 0.22774081,583.07367 0.22774081,562.49951 C 0.22774081,541.92534 16.925615,525.22746 37.49978,525.22746 C 58.073945,525.22746 74.771819,541.92534 74.771819,562.49951 z "
         style="fill:black;fill-opacity:1;stroke:black;stroke-width:0.45572799;stroke-miterlimit:4;stroke-opacity:1" />
      <path
         id="path2887"
         d="M 749.77238,562.49951 C 749.77238,583.07367 733.07451,599.77154 712.50034,599.77154 C 691.92617,599.77154 675.2283,583.07367 675.2283,562.49951 C 675.2283,541.92534 691.92617,525.22746 712.50034,525.22746 C 733.07451,525.22746 749.77238,541.92534 749.77238,562.49951 z "
         style="fill:black;fill-opacity:1;stroke:black;stroke-width:0.45572799;stroke-miterlimit:4;stroke-opacity:1" />
      <path
         id="path2889"
         d="M 74.771819,37.498907 C 74.771819,58.073066 58.073945,74.77094 37.49978,74.77094 C 16.925615,74.77094 0.22774081,58.073066 0.22774081,37.498907 C 0.22774081,16.924736 16.925615,0.22686163 37.49978,0.22686163 C 58.073945,0.22686163 74.771819,16.924736 74.771819,37.498907 z "
         style="fill:black;fill-opacity:1;stroke:black;stroke-width:0.45572799;stroke-miterlimit:4;stroke-opacity:1" />
      <path
         id="path2891"
         d="M 749.77238,37.498907 C 749.77238,58.073066 733.07451,74.77094 712.50034,74.77094 C 691.92617,74.77094 675.2283,58.073066 675.2283,37.498907 C 675.2283,16.924736 691.92617,0.22686163 712.50034,0.22686163 C 733.07451,0.22686163 749.77238,16.924736 749.77238,37.498907 z "
         style="fill:black;fill-opacity:1;stroke:black;stroke-width:0.45572799;stroke-miterlimit:4;stroke-opacity:1" />
      <path
         id="rect2893"
         d="M 38.293874,0.79322588 L 711.70662,0.79322588 L 711.70662,599.20591 L 38.293874,599.20591 L 38.293874,0.79322588 z "
         style="fill:black;fill-opacity:1;stroke:black;stroke-width:1.58778489;stroke-miterlimit:4;stroke-opacity:1" />
      <path
         id="rect7320"
         d="M 1.8575585,39.35699 L 748.14295,39.35699 L 748.14295,560.64221 L 1.8575585,560.64221 L 1.8575585,39.35699 z "
         style="fill:black;fill-opacity:1;stroke:black;stroke-width:3.71521139;stroke-miterlimit:4;stroke-opacity:1" />
      <path
         sodipodi:nodetypes="ccccccccc"
         id="path8224"
         d="M 130.70814,24.99942 L 147.50528,125.25567 L 18.749981,125.25567 L 90.826672,574.99986 L 659.17385,574.99986 L 731.25055,125.25567 L 602.49525,125.25567 L 619.29241,24.99942 L 130.70814,24.99942 z "
         style="fill:white;fill-opacity:1;fill-rule:evenodd;stroke:none;stroke-width:1px;stroke-linecap:butt;stroke-linejoin:miter;stroke-opacity:1" />
      <path
         id="flowRoot10884"
         d="M 462.01367,1064.2221 C 462.01334,1086.081 458.27799,1106.4789 450.80762,1125.416 C 443.3366,1144.3532 433.0705,1160.7554 420.00928,1174.6225 C 406.94748,1188.4897 391.2167,1199.2889 372.81689,1207.02 C 354.41661,1214.7511 334.54765,1218.6167 313.20996,1218.6167 C 291.35108,1218.6167 271.48619,1214.8854 253.61523,1207.4228 C 235.74404,1199.9603 220.27774,1189.5599 207.21631,1176.2216 C 194.15472,1162.8835 183.75434,1147.0144 176.01514,1128.6142 C 168.27584,1110.2143 163.87725,1090.0849 162.81934,1068.226 L 238.01465,1068.226 C 240.1467,1090.0849 248.01209,1108.0821 261.61084,1122.2177 C 275.20933,1136.3536 292.40902,1143.4214 313.20996,1143.4214 C 335.08476,1143.4214 353.08604,1135.8205 367.21387,1120.6186 C 381.34122,1105.4169 388.40502,1086.6181 388.40527,1064.2221 C 388.40502,1049.818 386.54141,1036.3496 382.81445,1023.8169 C 379.08699,1011.2845 374.02108,1000.3511 367.6167,991.01657 C 361.21185,981.68249 353.87543,974.35014 345.60742,969.0195 C 337.33899,963.68934 328.40345,961.02414 318.80078,961.02389 L 281.20313,961.02389 L 281.20313,887.4155 L 313.20996,887.4155 C 322.81263,887.41582 330.14905,885.8167 335.21924,882.61813 C 340.28902,879.42022 346.02225,874.08575 352.41895,866.61471 C 367.88095,849.55778 375.61206,829.56269 375.6123,806.62936 C 375.61206,785.82901 369.87883,769.29256 358.4126,757.01999 C 346.94591,744.74832 331.87838,738.61226 313.20996,738.61179 C 296.1525,738.61226 282.68816,743.54796 272.81689,753.41891 C 262.94534,763.29078 256.94356,777.29223 254.81152,795.42331 L 179.61621,785.82858 C 181.74832,768.21835 186.54568,751.81618 194.0083,736.62204 C 201.4708,721.42884 211.06958,708.49754 222.80469,697.82809 C 234.53961,687.15967 248.1423,678.75717 263.61279,672.62057 C 279.08302,666.48505 295.6154,663.41702 313.20996,663.41647 C 332.41549,663.41702 350.2825,666.88381 366.81104,673.81686 C 383.3391,680.75099 397.60504,690.48405 409.60889,703.01608 C 421.61218,715.54913 431.08075,730.2179 438.01465,747.02243 C 444.94793,763.82789 448.41472,781.8251 448.41504,801.01413 C 448.41472,823.42662 444.81365,844.23145 437.61182,863.42868 C 430.40937,882.6266 417.74255,902.62576 399.61133,923.42624 C 420.41182,942.09513 436.01239,963.42893 446.41309,987.4277 C 456.81315,1011.4269 462.01334,1037.025 462.01367,1064.2221 L 462.01367,1064.2221 z M 852.88544,940.22311 C 852.88507,981.28779 850.61864,1016.2202 846.08612,1045.0205 C 841.55289,1073.8211 833.67936,1101.0224 822.46552,1126.6245 C 809.13512,1158.6232 792.47254,1181.9549 772.47772,1196.6196 C 752.48234,1211.2843 727.28299,1218.6167 696.87958,1218.6167 C 664.8807,1218.6167 638.87975,1211.2843 618.87665,1196.6196 C 598.87328,1181.9549 582.20663,1158.6232 568.87665,1126.6245 C 557.67866,1100.4853 549.81327,1073.1497 545.28046,1044.6176 C 540.74753,1016.0859 538.48109,981.28779 538.48114,940.22311 C 538.48109,899.69608 540.74753,864.89794 545.28046,835.82858 C 549.81327,806.75997 557.67866,779.42439 568.87665,753.82175 C 582.74374,721.82354 599.67895,698.75634 619.68231,684.62009 C 639.68542,670.48488 665.41781,663.41702 696.87958,663.41647 C 727.80382,663.41702 753.13338,670.48488 772.86835,684.62009 C 792.60274,698.75634 809.13512,722.36064 822.46552,755.43307 C 827.80372,768.76359 832.47494,782.09366 836.47919,795.42331 C 840.48274,808.75379 843.68505,822.75117 846.08612,837.4155 C 848.48648,852.08057 850.21987,867.81541 851.28632,884.62009 C 852.35203,901.42541 852.88507,919.95973 852.88544,940.22311 L 852.88544,940.22311 z M 779.27704,940.22311 C 779.27675,925.28199 778.87799,911.6793 778.08075,899.41501 C 777.28294,887.15133 776.21686,875.81915 774.88251,865.41843 C 773.54759,855.01839 771.81419,845.02084 769.68231,835.42575 C 767.54987,825.83141 765.14916,816.23262 762.48016,806.62936 C 755.5463,782.62263 746.87932,765.28459 736.47919,754.6152 C 726.07856,743.94672 712.8787,738.61226 696.87958,738.61179 C 663.80649,738.61226 641.14212,760.74765 628.88641,805.01804 C 622.47352,825.28209 618.07086,845.68002 615.67841,866.21188 C 613.2857,886.74443 612.08942,911.94379 612.08954,941.81003 C 612.08942,956.21458 612.48818,969.4185 613.28583,981.42184 C 614.08323,993.42564 615.14931,1004.6276 616.48407,1015.0278 C 617.81858,1025.4284 619.55197,1035.6945 621.68427,1045.8261 C 623.81629,1055.9581 626.21701,1066.3544 628.88641,1077.0151 C 641.14212,1121.286 663.80649,1143.4214 696.87958,1143.4214 C 712.8787,1143.4214 726.07856,1138.087 736.47919,1127.4179 C 746.87932,1116.7491 755.5463,1099.9482 762.48016,1077.0151 C 765.66999,1066.3544 768.33519,1056.0924 770.47577,1046.229 C 772.61579,1036.3659 774.34918,1026.0998 775.67596,1015.4306 C 777.00217,1004.7619 777.93398,993.42564 778.47137,981.42184 C 779.00819,969.4185 779.27675,955.68561 779.27704,940.22311 L 779.27704,940.22311 z M 1229.7435,855.43307 C 1229.7432,922.10003 1213.6096,986.09736 1181.3427,1047.4253 C 1149.0751,1108.7535 1103.6121,1162.619 1044.9535,1209.0219 L 1001.7406,1149.0122 C 1012.9384,1140.4836 1024.2706,1130.2216 1035.7372,1118.226 C 1047.2035,1106.2307 1058.0026,1093.4296 1068.1346,1079.8227 C 1078.2663,1066.2161 1087.332,1052.4791 1095.3319,1038.6118 C 1103.3314,1024.7448 1109.7319,1011.4147 1114.5336,998.62155 C 1108.1369,999.69598 1102.4077,1000.2331 1097.3461,1000.2329 C 1092.284,1000.2331 1086.8153,1000.2331 1080.9398,1000.2329 C 1034.5367,1000.2331 997.87087,985.03128 970.94226,954.62741 C 944.0135,924.22405 930.54916,882.89108 930.54919,830.62839 C 930.54916,805.56369 934.01596,782.76504 940.94958,762.23239 C 947.88313,741.70063 957.88068,724.09811 970.94226,709.42477 C 984.0037,694.75244 999.86875,683.41618 1018.5375,675.41598 C 1037.206,667.41685 1058.0067,663.41702 1080.9398,663.41647 C 1130.0119,663.41702 1167.0805,679.68491 1192.1459,712.22018 C 1217.2107,744.75646 1229.7432,792.49404 1229.7435,855.43307 L 1229.7435,855.43307 z M 1156.1351,838.61179 C 1156.1349,808.22482 1149.2013,783.96133 1135.3344,765.82126 C 1121.4669,747.68207 1103.3354,738.61226 1080.9398,738.61179 C 1056.9488,738.61226 1038.4185,746.88048 1025.349,763.41647 C 1012.2792,779.95336 1005.7444,802.35731 1005.7445,830.62839 C 1005.7444,859.95816 1012.2792,883.02129 1025.349,899.81784 C 1038.4185,916.61501 1056.9488,925.01344 1080.9398,925.01315 C 1103.3354,925.01344 1121.4669,917.28232 1135.3344,901.81979 C 1149.2013,886.35788 1156.1349,865.28856 1156.1351,838.61179 L 1156.1351,838.61179 z "
         style=""
         transform="matrix(0.540346,0,0,0.540346,-1.232613,-194.7257)" />
    </g>
  </g>
</svg>
