<?xml version="1.0" encoding="utf-8"?>
<!-- Generator: Adobe Illustrator 12.0.0, SVG Export Plug-In . SVG Version: 6.00 Build 51448)  -->
<!DOCTYPE svg PUBLIC "-//W3C//DTD SVG 1.1//EN" "http://www.w3.org/Graphics/SVG/1.1/DTD/svg11.dtd" [
	<!ENTITY ns_svg "http://www.w3.org/2000/svg">
	<!ENTITY ns_xlink "http://www.w3.org/1999/xlink">
]>
<svg  version="1.1" id="Layer_1" xmlns="&ns_svg;" xmlns:xlink="&ns_xlink;" width="750" height="600" viewBox="0 0 750 600"
	 overflow="visible" enable-background="new 0 0 750 600" xml:space="preserve">
<g>
	<g>
		<path d="M0,50C0,22.3857422,22.3852539,0,50,0h650c27.6142578,0,50,22.3857422,50,50v500c0,27.6152344-22.3857422,50-50,50H50
			c-27.6147461,0-50-22.3847656-50-50V50L0,50z"/>
		<path d="M375,300"/>
	</g>
	<path fill-rule="evenodd" clip-rule="evenodd" fill="#FFFFFF" d="M375,10.0019531
		c-36.3276367,22.4638672-79.1499023,35.4287109-125.0004883,35.4287109C204.1494141,45.4306641,161.3271484,32.4638672,125,10
		L10,125c21.1630859,30.0805664,33.5883789,66.7524414,33.5883789,106.3276367
		c0,28.5600586-6.472168,55.6083984-18.0288086,79.7583008C15.5854492,331.9550781,9.9995117,355.3261719,9.9995117,380
		c0,88.3671875,71.6333008,160,160,160h100.1157227C312.4584961,540,350.2485352,559.4941406,375,589.9980469
		C399.7509766,559.4941406,437.5410156,540,479.8847656,540H580c88.3671875,0,160-71.6328125,160-160
		c0-24.6738281-5.5839844-48.0449219-15.5605469-68.9140625c-11.5566406-24.1499023-18.0273438-51.1982422-18.0273438-79.7583008
		C706.4121094,191.7524414,718.8369141,155.0805664,740,125L625,10c-36.328125,22.4638672-79.1503906,35.4306641-125,35.4306641
		C454.1494141,45.4306641,411.3271484,32.4658203,375,10.0019531z"/>
</g>
<g>
	<path fill-rule="evenodd" clip-rule="evenodd" d="M263.4575195,364.6757813h-17.315918v70.1298828h-41.9912109v-70.1298828
		H84.2368164v-29.4375L204.1503906,144.762207h41.9912109v181.3852539h17.315918V364.6757813z M204.1503906,326.1474609V217.0566406
		l-68.8310547,109.0908203H204.1503906z"/>
	<path fill-rule="evenodd" clip-rule="evenodd" d="M468.7988281,434.8056641H306.894043
		c1.7314453-32.3232422,6.4936523-58.7304688,14.2856445-79.2207031
		c11.2553711-30.0146484,26.8398438-54.1132813,46.753418-72.2944336
		c6.3491211-5.7719727,18.6147461-15.0078125,36.7963867-27.7055664
		c9.5244141-6.6381836,15.9453125-12.265625,19.2646484-16.8833008c3.3183594-4.6176758,4.9775391-10.3896484,4.9775391-17.315918
		c0-11.2558594-3.9677734-20.8515625-11.9042969-28.7880859s-17.5322266-11.9047852-28.7880859-11.9047852
		s-20.8515625,3.9677734-28.7880859,11.9047852c-7.9365234,7.9365234-11.9042969,17.5322266-11.9042969,28.7880859H306.894043
		c0.5771484-23.0883789,8.5859375-42.4243164,24.0258789-58.0087891
		c15.4404297-15.5844727,34.5600586-23.3764648,57.359375-23.3764648c22.2226563,0,41.1972656,7.9365234,56.9257813,23.8095703
		c15.7294922,15.8725586,23.59375,35.0644531,23.59375,57.5756836c0,22.5107422-8.2246094,41.4140625-24.6757813,56.7099609
		c-4.0400391,2.8857422-7.0703125,5.3388672-9.0898438,7.359375l-20.3476563,13.8525391l-11.2539063,8.2255859
		c-20.7802734,15.0068359-36.0751953,36.3632813-45.8881836,64.0683594
		c-2.309082,7.2148438-4.3291016,14.71875-6.0600586,22.5117188h117.3154297V434.8056641z"/>
	<path fill-rule="evenodd" clip-rule="evenodd" d="M665.7626953,434.8056641H503.8574219
		c1.7324219-32.3232422,6.4941406-58.7304688,14.2861328-79.2207031
		c11.2548828-30.0146484,26.8398438-54.1132813,46.7539063-72.2944336
		c6.3486328-5.7719727,18.6142578-15.0078125,36.7958984-27.7055664
		c9.5234375-6.6381836,15.9453125-12.265625,19.2636719-16.8833008c3.3193359-4.6176758,4.9794922-10.3896484,4.9794922-17.315918
		c0-11.2558594-3.9697266-20.8515625-11.9052734-28.7880859c-7.9365234-7.9365234-17.5332031-11.9047852-28.7880859-11.9047852
		s-20.8505859,3.9677734-28.7880859,11.9047852c-7.9355469,7.9365234-11.9042969,17.5322266-11.9042969,28.7880859h-40.6933594
		c0.578125-23.0883789,8.5859375-42.4243164,24.0273438-58.0087891
		c15.4394531-15.5844727,34.5585938-23.3764648,57.3583984-23.3764648c22.2216797,0,41.1982422,7.9365234,56.9267578,23.8095703
		c15.7285156,15.8725586,23.5927734,35.0644531,23.5927734,57.5756836c0,22.5107422-8.2255859,41.4140625-24.6748047,56.7099609
		c-4.0410156,2.8857422-7.0712891,5.3388672-9.0917969,7.359375l-20.3457031,13.8525391l-11.2558594,8.2255859
		c-20.7792969,15.0068359-36.0742188,36.3632813-45.8867188,64.0683594
		c-2.3095703,7.2148438-4.3300781,14.71875-6.0605469,22.5117188h117.3154297V434.8056641z"/>
</g>
</svg>
