<?xml version="1.0" encoding="utf-8"?>
<!-- Generator: Adobe Illustrator 12.0.0, SVG Export Plug-In . SVG Version: 6.00 Build 51448)  -->
<!DOCTYPE svg PUBLIC "-//W3C//DTD SVG 1.1//EN" "http://www.w3.org/Graphics/SVG/1.1/DTD/svg11.dtd" [
	<!ENTITY ns_svg "http://www.w3.org/2000/svg">
	<!ENTITY ns_xlink "http://www.w3.org/1999/xlink">
]>
<svg  version="1.1" id="Layer_1" xmlns="&ns_svg;" xmlns:xlink="&ns_xlink;" width="600" height="600" viewBox="0 0 600 600"
	 overflow="visible" enable-background="new 0 0 600 600" xml:space="preserve">
<g>
	<path d="M0,50C0,22.3857422,22.3852539,0,50,0h500c27.6142578,0,50,22.3857422,50,50v500c0,27.6152344-22.3857422,50-50,50H50
		c-27.6147461,0-50-22.3847656-50-50V50L0,50z"/>
	<path d="M300,300"/>
</g>
<g>
	<path fill-rule="evenodd" clip-rule="evenodd" fill="#FFFFFF" d="M300,10.0024414
		c23.5644531,20.0751953,54.1171875,32.1918945,87.5,32.1918945S451.4355469,30.0751953,475,10l115,115
		c-21.1621094,30.0805664-33.5878906,66.7539063-33.5878906,106.3271484c0,28.4628906,6.4267578,55.4238281,17.9101563,79.5117188
		C584.2441406,331.6640625,590,355.3945313,590,380c0,88.3671875-71.6328125,160-160,160h-25.1132813
		C362.5419922,540,324.7509766,559.4951172,300,590c-24.7514648-30.5048828-62.5419922-50-104.8867188-50h-25.1137695
		c-88.3666992,0-160-71.6328125-160-160c0-24.6054688,5.7563477-48.3359375,15.6782227-69.1611328
		c11.4829102-24.0878906,17.9101563-51.0488281,17.9101563-79.5117188C43.5878906,191.7539063,31.1616211,155.0805664,10,125L125,10
		c23.5644531,20.0751953,54.1171875,32.1943359,87.5,32.1943359S276.4355469,30.0776367,300,10.0024414z"/>
	
		<path fill-rule="evenodd" clip-rule="evenodd" fill="none" stroke="#000000" stroke-linecap="round" stroke-linejoin="round" stroke-miterlimit="3.863693" d="
		M300,10.0024414c23.5644531,20.0751953,54.1171875,32.1918945,87.5,32.1918945S451.4355469,30.0751953,475,10l115,115
		c-21.1621094,30.0805664-33.5878906,66.7539063-33.5878906,106.3271484c0,28.4628906,6.4267578,55.4238281,17.9101563,79.5117188
		C584.2441406,331.6640625,590,355.3945313,590,380c0,88.3671875-71.6328125,160-160,160h-25.1132813
		C362.5419922,540,324.7509766,559.4951172,300,590c-24.7514648-30.5048828-62.5419922-50-104.8867188-50h-25.1137695
		c-88.3666992,0-160-71.6328125-160-160c0-24.6054688,5.7563477-48.3359375,15.6782227-69.1611328
		c11.4829102-24.0878906,17.9101563-51.0488281,17.9101563-79.5117188C43.5878906,191.7539063,31.1616211,155.0805664,10,125L125,10
		c23.5644531,20.0751953,54.1171875,32.1943359,87.5,32.1943359S276.4355469,30.0776367,300,10.0024414z"/>
</g>
<g>
	<path fill-rule="evenodd" clip-rule="evenodd" d="M274.5039063,351.2558594
		c0,25.1074219-9.4516602,46.1757813-28.3549805,63.203125S203.796875,440,175.8027344,440
		s-51.4433594-8.9462891-70.3466797-26.8398438c-18.902832-17.8925781-28.3544922-39.8261719-28.3544922-65.8007813
		c0-40.1152344,10.2451172-79.1484375,30.7353516-117.0996094C128.328125,192.3085938,155.3120117,162.2226563,188.7895508,140
		l23.3764648,38.5283203c-31.1689453,24.2421875-54.8339844,53.3911133-70.9951172,87.4462891
		c10.6777344-2.0205078,22.2216797-3.0302734,34.6318359-3.0302734c26.8398438,0,50,8.6577148,69.4804688,25.9736328
		C264.7636719,306.234375,274.5039063,327.0136719,274.5039063,351.2558594z M228.6162109,350.3896484
		c0-11.2548828-5.1943359-20.9951172-15.5839844-29.2207031c-10.3896484-8.2246094-22.7998047-12.3378906-37.2294922-12.3378906
		c-14.1416016,0-26.3349609,4.1132813-36.5800781,12.3378906c-10.2456055,8.2255859-15.3681641,17.9658203-15.3681641,29.2207031
		c0,11.8330078,5.0507813,21.9335938,15.1513672,30.3037109c10.1010742,8.3691406,22.3666992,12.5537109,36.796875,12.5537109
		c14.1416016,0,26.4790039-4.2568359,37.0126953-12.7705078
		C223.3496094,371.9628906,228.6162109,361.9335938,228.6162109,350.3896484z"/>
	<path fill-rule="evenodd" clip-rule="evenodd" d="M522.8984375,339.1347656
		c0,29.7255859-9.3066406,53.9677734-27.921875,72.7265625C476.3613281,430.6210938,452.3359375,440,422.8984375,440
		c-23.3769531,0-43.7949219-7.0703125-61.2548828-21.2119141s-29.2216797-32.9003906-35.2822266-56.2773438l44.5888672-12.9873047
		c7.5039063,29.1494141,25.5419922,43.7236328,54.1132813,43.7236328c15.2958984,0,27.7773438-4.8339844,37.4453125-14.5019531
		c9.6689453-9.6689453,14.5029297-21.8623047,14.5029297-36.5800781c0-16.7392578-5.484375-28.8603516-16.4511719-36.3642578
		c-4.6171875-3.4628906-14.4296875-5.6269531-29.4365234-6.4931641c0,0-1.7314453,0-5.1943359,0v-45.4550781h11.2548828
		c19.0478516,0,28.5712891-9.5234375,28.5712891-28.5712891c0-11.2548828-4.0410156-20.4902344-12.1210938-27.7050781
		c-8.0810547-7.2148438-17.8935547-10.8227539-29.4375-10.8227539c-19.3359375,0-33.9101563,9.3793945-43.7226563,28.1386719
		L337.6171875,198.875c7.5039063-18.4707031,18.9033203-32.9003906,34.1992188-43.2900391
		C387.1123047,145.1948242,404.1396484,140,422.8984375,140c24.53125,0,45.4550781,8.5859375,62.7705078,25.7578125
		c17.3164063,17.171875,25.9746094,38.0234375,25.9746094,62.5541992c0,15.5844727-5.4833984,31.4575195-16.4501953,47.6186523
		c10.6777344,9.8125,17.9648438,19.1923828,21.8613281,28.1386719
		C520.9501953,313.015625,522.8984375,324.7041016,522.8984375,339.1347656z"/>
</g>
</svg>
